<?xml version="1.0" encoding="utf-8"?>
<svg viewBox="238 238 26 26" xmlns="http://www.w3.org/2000/svg">
  <g transform="matrix(0.201691, 0, 0, 0.229358, 237.8983, 236.338242)" style="">
    <g fill="#231F20">
      <polygon points="20.042 92 56.042 118.5 56.042 9.5 20.042 36" style="stroke-linejoin: round; fill: rgb(237, 237, 237);"/>
      <rect x="1" y="36" width="17" height="56" style="fill: rgb(237, 237, 237);"/>
      <path d="M 63.965 48.729 C 62.794 49.901 62.794 51.8 63.966 52.972 C 66.912 55.918 68.535 59.834 68.535 64 C 68.535 68.166 66.912 72.083 63.966 75.03 C 62.794 76.201 62.794 78.101 63.966 79.272 C 64.552 79.858 65.32 80.151 66.087 80.151 C 66.854 80.151 67.622 79.858 68.208 79.272 C 72.288 75.192 74.535 69.768 74.535 64 C 74.535 58.231 72.288 52.808 68.208 48.729 C 67.036 47.558 65.137 47.557 63.965 48.729 Z" style="paint-order: stroke markers; stroke-width: 9.27969px; fill: rgb(0, 165, 165); stroke: rgb(0, 165, 165);"/>
      <path d="M 84.287 32.653 C 83.116 31.481 81.218 31.48 80.045 32.651 C 78.873 33.822 78.872 35.721 80.043 36.894 C 87.28 44.14 91.267 53.766 91.267 64 C 91.267 74.234 87.281 83.86 80.043 91.105 C 78.872 92.277 78.873 94.176 80.045 95.347 C 80.631 95.933 81.398 96.225 82.165 96.225 C 82.934 96.225 83.701 95.932 84.287 95.345 C 92.657 86.968 97.266 75.836 97.266 64 C 97.267 52.165 92.657 41.032 84.287 32.653 Z" style="paint-order: stroke markers; stroke-width: 9.27969px; fill: rgb(0, 165, 165); stroke: rgb(0, 165, 165);"/>
      <path d="M 100.352 16.582 C 99.18 15.411 97.28 15.411 96.11 16.582 C 94.938 17.753 94.938 19.653 96.11 20.825 C 107.643 32.357 113.994 47.69 113.994 64 C 113.994 80.307 107.642 95.641 96.109 107.176 C 94.937 108.348 94.937 110.247 96.109 111.418 C 96.695 112.004 97.463 112.297 98.23 112.297 C 98.997 112.297 99.766 112.004 100.351 111.418 C 113.018 98.749 119.994 81.909 119.994 64 C 119.994 46.087 113.018 29.247 100.352 16.582 Z" style="paint-order: stroke markers; stroke-width: 9.27969px; fill: rgb(0, 165, 165); stroke: rgb(0, 165, 165);"/>
    </g>
  </g>
</svg>