<?xml version="1.0" encoding="utf-8"?>
<svg version="1.1" width="530.973px" height="551.986px" preserveAspectRatio="none" viewBox="135.92 383.219 32.977 33.602" xmlns="http://www.w3.org/2000/svg">
  <defs>
    <clipPath id="clippath0" transform="">
      <path d="M 0 551.986 L 530.973 551.986 L 530.973 0 L 0 0 Z" style="fill: none; clip-rule: nonzero;"/>
    </clipPath>
  </defs>
  <g transform="matrix(1 0 0 -1 0 551.986)">
    <g transform="">
      <path d="M 0 0 L 530.973 0 L 530.973 275.986 L 0 275.986 Z" style="fill: rgb(44, 46, 53); fill-opacity: 1;"/>
      <path d="M 0 551.986 L 530.973 551.986 L 530.973 0 L 0 0 Z" style="fill: none;"/>
    </g>
    <g style="clip-path: url(#clippath0);">
      <g transform="translate(152.6083 444.5454)">
        <path d="M 0 0 C -8.995 0 -16.288 -7.293 -16.288 -16.29 C -16.288 -23.487 -11.621 -29.592 -5.148 -31.747 C -4.333 -31.896 -4.036 -31.393 -4.036 -30.961 C -4.036 -30.575 -4.05 -29.55 -4.058 -28.191 C -8.589 -29.175 -9.545 -26.007 -9.545 -26.007 C -10.286 -24.126 -11.354 -23.625 -11.354 -23.625 C -12.833 -22.614 -11.242 -22.634 -11.242 -22.634 C -9.607 -22.75 -8.747 -24.313 -8.747 -24.313 C -7.294 -26.802 -4.934 -26.083 -4.006 -25.667 C -3.858 -24.614 -3.438 -23.896 -2.972 -23.489 C -6.589 -23.078 -10.392 -21.68 -10.392 -15.438 C -10.392 -13.66 -9.757 -12.206 -8.715 -11.067 C -8.883 -10.655 -9.442 -8.999 -8.556 -6.756 C -4.076 -8.426 -7.188 -6.318 -4.076 -8.426 C -2.777 -8.065 -1.383 -7.884 0.002 -7.878 C 1.385 -7.884 2.779 -8.065 4.08 -8.426 C 7.19 -6.318 8.555 -6.756 8.555 -6.756 C 9.444 -8.999 8.885 -10.655 8.717 -11.067 C 9.761 -12.206 10.392 -13.66 10.392 -15.438 C 10.392 -21.696 6.583 -23.073 2.954 -23.476 C 3.539 -23.979 4.06 -24.973 4.06 -26.493 C 4.06 -28.67 4.04 -30.427 4.04 -30.961 C 4.04 -31.397 4.333 -31.904 5.16 -31.745 C 11.628 -29.586 16.291 -23.485 16.291 -16.29 C 16.291 -7.293 8.997 0 0 0" style="fill: rgb(24, 23, 24); fill-rule: evenodd; fill-opacity: 1;"/>
      </g>
    </g>
    <g style="clip-path: url(#clippath0);">
      <g transform="translate(350.6088 493.5547)">
        <path d="M 0 0 C -33.347 0 -60.388 -27.035 -60.388 -60.388 C -60.388 -87.068 -43.085 -109.704 -19.091 -117.689 C -16.073 -118.248 -14.965 -116.379 -14.965 -114.784 C -14.965 -113.345 -15.021 -108.587 -15.047 -103.541 C -31.847 -107.194 -35.392 -96.416 -35.392 -96.416 C -38.139 -89.437 -42.097 -87.58 -42.097 -87.58 C -47.576 -83.832 -41.684 -83.909 -41.684 -83.909 C -35.62 -84.335 -32.427 -90.133 -32.427 -90.133 C -27.041 -99.364 -18.3 -96.695 -14.854 -95.152 C -14.311 -91.25 -12.747 -88.585 -11.02 -87.077 C -24.433 -85.551 -38.533 -80.372 -38.533 -57.233 C -38.533 -50.641 -36.174 -45.253 -32.311 -41.024 C -32.938 -39.503 -35.005 -33.361 -31.725 -25.043 C -15.115 -31.234 -26.654 -23.421 -15.115 -31.234 C -10.298 -29.896 -5.132 -29.225 0 -29.201 C 5.132 -29.225 10.302 -29.896 15.128 -31.234 C 26.654 -23.421 31.718 -25.043 31.718 -25.043 C 35.005 -33.361 32.938 -39.503 32.311 -41.024 C 36.183 -45.253 38.525 -50.641 38.525 -57.233 C 38.525 -80.428 24.398 -85.534 10.951 -87.029 C 13.117 -88.903 15.047 -92.578 15.047 -98.212 C 15.047 -106.292 14.978 -112.795 14.978 -114.784 C 14.978 -116.392 16.064 -118.274 19.125 -117.682 C 43.107 -109.688 60.388 -87.06 60.388 -60.388 C 60.388 -27.035 33.351 0 0 0" style="fill: rgb(24, 23, 24); fill-rule: evenodd; fill-opacity: 1;"/>
      </g>
    </g>
    <g style="clip-path: url(#clippath0);">
      <g transform="translate(313.0932 406.8515)">
        <path d="M 0 0 C -0.133 -0.301 -0.605 -0.391 -1.035 -0.185 C -1.474 0.013 -1.719 0.422 -1.577 0.723 C -1.447 1.031 -0.975 1.117 -0.537 0.911 C -0.099 0.714 0.151 0.301 0 0" style="fill: rgb(24, 23, 24); fill-opacity: 1;"/>
      </g>
    </g>
    <g style="clip-path: url(#clippath0);">
      <g transform="translate(315.5395 404.123)">
        <path d="M 0 0 C -0.288 -0.267 -0.852 -0.143 -1.233 0.279 C -1.629 0.7 -1.702 1.264 -1.41 1.534 C -1.113 1.801 -0.567 1.676 -0.172 1.255 C 0.224 0.829 0.301 0.271 0 0" style="fill: rgb(24, 23, 24); fill-opacity: 1;"/>
      </g>
    </g>
    <g style="clip-path: url(#clippath0);">
      <g transform="translate(317.9204 400.6455)">
        <path d="M 0 0 C -0.37 -0.258 -0.976 -0.017 -1.35 0.52 C -1.72 1.058 -1.72 1.702 -1.341 1.96 C -0.967 2.218 -0.37 1.985 0.009 1.453 C 0.378 0.907 0.378 0.263 0 0" style="fill: rgb(24, 23, 24); fill-opacity: 1;"/>
      </g>
    </g>
    <g style="clip-path: url(#clippath0);">
      <g transform="translate(321.1821 397.2851)">
        <path d="M 0 0 C -0.331 -0.365 -1.036 -0.267 -1.552 0.232 C -2.08 0.718 -2.227 1.409 -1.896 1.774 C -1.56 2.14 -0.851 2.037 -0.331 1.543 C 0.193 1.057 0.352 0.361 0 0" style="fill: rgb(24, 23, 24); fill-opacity: 1;"/>
      </g>
    </g>
    <g style="clip-path: url(#clippath0);">
      <g transform="translate(325.6821 395.334)">
        <path d="M 0 0 C -0.147 -0.473 -0.825 -0.687 -1.509 -0.486 C -2.192 -0.279 -2.639 0.274 -2.501 0.752 C -2.359 1.228 -1.677 1.452 -0.988 1.237 C -0.306 1.031 0.142 0.481 0 0" style="fill: rgb(24, 23, 24); fill-opacity: 1;"/>
      </g>
    </g>
    <g style="clip-path: url(#clippath0);">
      <g transform="translate(330.6245 394.9726)">
        <path d="M 0 0 C 0.017 -0.498 -0.563 -0.911 -1.281 -0.92 C -2.003 -0.936 -2.588 -0.533 -2.596 -0.043 C -2.596 0.46 -2.028 0.868 -1.307 0.881 C -0.589 0.895 0 0.494 0 0" style="fill: rgb(24, 23, 24); fill-opacity: 1;"/>
      </g>
    </g>
    <g style="clip-path: url(#clippath0);">
      <g transform="translate(335.2231 395.7549)">
        <path d="M 0 0 C 0.086 -0.485 -0.413 -0.984 -1.126 -1.117 C -1.827 -1.246 -2.476 -0.945 -2.565 -0.464 C -2.652 0.034 -2.145 0.533 -1.444 0.662 C -0.73 0.786 -0.091 0.494 0 0" style="fill: rgb(24, 23, 24); fill-opacity: 1;"/>
      </g>
    </g>
    <g style="clip-path: url(#clippath0);">
      <g transform="translate(224.8979 499.4882)">
        <path d="M 0 0 L 0 -0.5" style="fill: none; stroke: rgb(34, 134, 195); stroke-opacity: 1; stroke-miterlimit: 0; stroke-linecap: round; stroke-width: 1px; stroke-dashoffset: 0px;"/>
      </g>
    </g>
    <g style="clip-path: url(#clippath0);">
      <g transform="translate(224.8979 496.9882)">
        <path d="M 0 0 L 0 -133.993" style="fill: none; stroke: rgb(34, 134, 195); stroke-opacity: 1; stroke-miterlimit: 0; stroke-linecap: round; stroke-width: 1px; stroke-dasharray: 1, 2; stroke-dashoffset: 0px;"/>
      </g>
    </g>
    <g style="clip-path: url(#clippath0);">
      <g transform="translate(224.8979 361.9951)">
        <path d="M 0 0 L 0 -0.5" style="fill: none; stroke: rgb(34, 134, 195); stroke-opacity: 1; stroke-miterlimit: 0; stroke-linecap: round; stroke-width: 1px; stroke-dashoffset: 0px;"/>
      </g>
    </g>
    <g style="clip-path: url(#clippath0);">
      <g transform="translate(133.2758 347.4795)">
        <path d="M 0 0 C -0.38 0.276 -0.866 0.414 -1.458 0.414 C -1.698 0.414 -1.934 0.39 -2.166 0.343 C -2.398 0.294 -2.604 0.214 -2.784 0.103 C -2.964 -0.011 -3.108 -0.16 -3.216 -0.349 C -3.324 -0.536 -3.378 -0.77 -3.378 -1.05 C -3.378 -1.314 -3.3 -1.528 -3.144 -1.692 C -2.988 -1.857 -2.78 -1.99 -2.52 -2.094 C -2.26 -2.198 -1.966 -2.284 -1.638 -2.353 C -1.31 -2.42 -0.976 -2.494 -0.636 -2.573 C -0.296 -2.653 0.038 -2.748 0.366 -2.857 C 0.694 -2.964 0.988 -3.11 1.248 -3.294 C 1.508 -3.478 1.716 -3.71 1.872 -3.989 C 2.028 -4.27 2.106 -4.622 2.106 -5.046 C 2.106 -5.502 2.004 -5.892 1.8 -6.216 C 1.596 -6.54 1.334 -6.804 1.014 -7.008 C 0.694 -7.212 0.336 -7.36 -0.06 -7.452 C -0.456 -7.544 -0.85 -7.59 -1.242 -7.59 C -1.722 -7.59 -2.176 -7.53 -2.604 -7.41 C -3.032 -7.29 -3.408 -7.108 -3.732 -6.864 C -4.056 -6.62 -4.312 -6.308 -4.5 -5.928 C -4.688 -5.548 -4.782 -5.099 -4.782 -4.578 L -3.702 -4.578 C -3.702 -4.939 -3.632 -5.248 -3.492 -5.508 C -3.352 -5.769 -3.168 -5.982 -2.94 -6.15 C -2.712 -6.317 -2.446 -6.442 -2.142 -6.522 C -1.838 -6.603 -1.526 -6.642 -1.206 -6.642 C -0.95 -6.642 -0.692 -6.618 -0.432 -6.569 C -0.172 -6.522 0.062 -6.44 0.27 -6.323 C 0.478 -6.208 0.646 -6.05 0.774 -5.851 C 0.902 -5.65 0.966 -5.394 0.966 -5.082 C 0.966 -4.786 0.888 -4.546 0.732 -4.362 C 0.576 -4.179 0.368 -4.028 0.108 -3.912 C -0.152 -3.796 -0.446 -3.702 -0.774 -3.63 C -1.102 -3.558 -1.436 -3.483 -1.776 -3.407 C -2.116 -3.332 -2.45 -3.244 -2.778 -3.144 C -3.106 -3.044 -3.4 -2.912 -3.66 -2.748 C -3.92 -2.584 -4.128 -2.372 -4.284 -2.112 C -4.44 -1.853 -4.518 -1.526 -4.518 -1.134 C -4.518 -0.702 -4.43 -0.328 -4.254 -0.012 C -4.078 0.304 -3.844 0.563 -3.552 0.768 C -3.26 0.972 -2.928 1.124 -2.556 1.224 C -2.184 1.324 -1.802 1.374 -1.41 1.374 C -0.97 1.374 -0.562 1.321 -0.186 1.218 C 0.19 1.114 0.52 0.95 0.804 0.725 C 1.088 0.502 1.312 0.22 1.476 -0.12 C 1.64 -0.46 1.73 -0.866 1.746 -1.338 L 0.666 -1.338 C 0.602 -0.722 0.38 -0.276 0 0" style="fill: rgb(0, 115, 192); fill-opacity: 1;"/>
      </g>
    </g>
    <g style="clip-path: url(#clippath0);">
      <g transform="translate(137.5537 346.2851)">
        <path d="M 0 0 L 0 -0.912 L 0.024 -0.912 C 0.488 -0.207 1.156 0.145 2.028 0.145 C 2.412 0.145 2.76 0.065 3.072 -0.096 C 3.384 -0.256 3.604 -0.527 3.732 -0.912 C 3.94 -0.576 4.214 -0.316 4.554 -0.132 C 4.894 0.053 5.268 0.145 5.676 0.145 C 5.988 0.145 6.27 0.11 6.522 0.043 C 6.774 -0.025 6.99 -0.132 7.17 -0.275 C 7.35 -0.42 7.49 -0.605 7.59 -0.834 C 7.69 -1.061 7.74 -1.336 7.74 -1.656 L 7.74 -6.203 L 6.72 -6.203 L 6.72 -2.136 C 6.72 -1.943 6.704 -1.764 6.672 -1.596 C 6.64 -1.428 6.58 -1.281 6.492 -1.158 C 6.404 -1.033 6.282 -0.935 6.126 -0.863 C 5.97 -0.791 5.768 -0.756 5.52 -0.756 C 5.016 -0.756 4.62 -0.899 4.332 -1.187 C 4.044 -1.476 3.9 -1.859 3.9 -2.34 L 3.9 -6.203 L 2.88 -6.203 L 2.88 -2.136 C 2.88 -1.935 2.862 -1.752 2.826 -1.584 C 2.79 -1.416 2.728 -1.27 2.64 -1.146 C 2.552 -1.021 2.434 -0.926 2.286 -0.857 C 2.138 -0.789 1.948 -0.756 1.716 -0.756 C 1.42 -0.756 1.166 -0.815 0.954 -0.935 C 0.742 -1.056 0.57 -1.199 0.438 -1.367 C 0.306 -1.535 0.21 -1.709 0.15 -1.89 C 0.09 -2.07 0.06 -2.22 0.06 -2.34 L 0.06 -6.203 L -0.96 -6.203 L -0.96 0 Z" style="fill: rgb(0, 115, 192); fill-opacity: 1;"/>
      </g>
    </g>
    <g style="clip-path: url(#clippath0);">
      <g transform="translate(150.1655 343.0761)">
        <path d="M 0 0 C -0.208 -0.045 -0.426 -0.08 -0.654 -0.108 C -0.882 -0.137 -1.112 -0.168 -1.344 -0.205 C -1.576 -0.24 -1.784 -0.299 -1.968 -0.379 C -2.152 -0.459 -2.302 -0.572 -2.418 -0.721 C -2.534 -0.869 -2.592 -1.07 -2.592 -1.326 C -2.592 -1.494 -2.558 -1.637 -2.49 -1.752 C -2.422 -1.869 -2.334 -1.963 -2.226 -2.035 C -2.118 -2.106 -1.99 -2.158 -1.842 -2.19 C -1.694 -2.223 -1.544 -2.238 -1.392 -2.238 C -1.056 -2.238 -0.768 -2.193 -0.528 -2.101 C -0.288 -2.009 -0.092 -1.893 0.06 -1.752 C 0.212 -1.613 0.324 -1.461 0.396 -1.297 C 0.468 -1.133 0.504 -0.979 0.504 -0.834 L 0.504 0.209 C 0.376 0.113 0.208 0.043 0 0 M 1.428 -3.127 C 1.164 -3.127 0.954 -3.053 0.798 -2.904 C 0.642 -2.757 0.564 -2.515 0.564 -2.179 C 0.284 -2.515 -0.042 -2.757 -0.414 -2.904 C -0.786 -3.053 -1.188 -3.127 -1.62 -3.127 C -1.9 -3.127 -2.164 -3.097 -2.412 -3.037 C -2.66 -2.977 -2.878 -2.877 -3.066 -2.736 C -3.254 -2.597 -3.402 -2.417 -3.51 -2.197 C -3.618 -1.977 -3.672 -1.711 -3.672 -1.398 C -3.672 -1.047 -3.612 -0.759 -3.492 -0.535 C -3.372 -0.311 -3.214 -0.129 -3.018 0.012 C -2.822 0.151 -2.598 0.258 -2.346 0.33 C -2.094 0.401 -1.836 0.461 -1.572 0.51 C -1.292 0.565 -1.026 0.607 -0.774 0.635 C -0.522 0.663 -0.3 0.703 -0.108 0.756 C 0.084 0.807 0.236 0.883 0.348 0.983 C 0.46 1.084 0.516 1.229 0.516 1.422 C 0.516 1.645 0.474 1.825 0.39 1.961 C 0.306 2.098 0.198 2.201 0.066 2.273 C -0.066 2.346 -0.214 2.394 -0.378 2.418 C -0.542 2.441 -0.704 2.453 -0.864 2.453 C -1.296 2.453 -1.656 2.371 -1.944 2.207 C -2.232 2.043 -2.388 1.733 -2.412 1.277 L -3.432 1.277 C -3.416 1.661 -3.336 1.985 -3.192 2.25 C -3.048 2.514 -2.856 2.728 -2.616 2.892 C -2.376 3.055 -2.1 3.174 -1.788 3.246 C -1.476 3.317 -1.148 3.354 -0.804 3.354 C -0.524 3.354 -0.246 3.334 0.03 3.293 C 0.306 3.254 0.556 3.172 0.78 3.047 C 1.004 2.924 1.184 2.749 1.32 2.525 C 1.456 2.301 1.524 2.01 1.524 1.649 L 1.524 -1.543 C 1.524 -1.783 1.538 -1.959 1.566 -2.07 C 1.594 -2.183 1.688 -2.238 1.848 -2.238 C 1.936 -2.238 2.04 -2.219 2.16 -2.179 L 2.16 -2.971 C 1.984 -3.074 1.74 -3.127 1.428 -3.127" style="fill: rgb(0, 115, 192); fill-opacity: 1;"/>
      </g>
    </g>
    <g style="clip-path: url(#clippath0);">
      <g transform="">
        <path d="M 154.354 340.082 L 153.334 340.082 L 153.334 348.649 L 154.354 348.649 Z" style="fill: rgb(0, 115, 192); fill-opacity: 1;"/>
        <path d="M 157.017 340.082 L 155.997 340.082 L 155.997 348.649 L 157.017 348.649 Z" style="fill: rgb(0, 115, 192); fill-opacity: 1;"/>
      </g>
      <g transform="translate(101.854 330.9863)">
        <path d="M 0 0 L 0 0.899 L 1.044 0.899 L 1.044 1.823 C 1.044 2.327 1.19 2.709 1.482 2.969 C 1.774 3.229 2.2 3.359 2.76 3.359 C 2.856 3.359 2.966 3.352 3.09 3.336 C 3.214 3.319 3.324 3.295 3.42 3.264 L 3.42 2.375 C 3.332 2.407 3.236 2.43 3.132 2.441 C 3.028 2.453 2.932 2.459 2.844 2.459 C 2.596 2.459 2.404 2.411 2.268 2.315 C 2.132 2.219 2.064 2.035 2.064 1.764 L 2.064 0.899 L 3.264 0.899 L 3.264 0 L 2.064 0 L 2.064 -5.305 L 1.044 -5.305 L 1.044 0 Z" style="fill: rgb(0, 115, 192); fill-opacity: 1;"/>
      </g>
      <g transform="translate(106.9238 327.7754)">
        <path d="M 0 0 C 0.1 -0.292 0.238 -0.535 0.414 -0.732 C 0.59 -0.928 0.796 -1.078 1.032 -1.182 C 1.268 -1.285 1.518 -1.338 1.782 -1.338 C 2.046 -1.338 2.296 -1.285 2.532 -1.182 C 2.768 -1.078 2.974 -0.928 3.15 -0.732 C 3.326 -0.535 3.464 -0.292 3.564 0 C 3.664 0.292 3.714 0.626 3.714 1.002 C 3.714 1.379 3.664 1.712 3.564 2.004 C 3.464 2.297 3.326 2.542 3.15 2.742 C 2.974 2.941 2.768 3.094 2.532 3.198 C 2.296 3.303 2.046 3.355 1.782 3.355 C 1.518 3.355 1.268 3.303 1.032 3.198 C 0.796 3.094 0.59 2.941 0.414 2.742 C 0.238 2.542 0.1 2.297 0 2.004 C -0.1 1.712 -0.15 1.379 -0.15 1.002 C -0.15 0.626 -0.1 0.292 0 0 M -1.038 2.28 C -0.91 2.676 -0.718 3.02 -0.462 3.313 C -0.206 3.604 0.11 3.834 0.486 4.002 C 0.862 4.17 1.294 4.254 1.782 4.254 C 2.278 4.254 2.712 4.17 3.084 4.002 C 3.456 3.834 3.77 3.604 4.026 3.313 C 4.282 3.02 4.474 2.676 4.602 2.28 C 4.73 1.885 4.794 1.458 4.794 1.002 C 4.794 0.547 4.73 0.122 4.602 -0.27 C 4.474 -0.662 4.282 -1.004 4.026 -1.296 C 3.77 -1.588 3.456 -1.816 3.084 -1.98 C 2.712 -2.144 2.278 -2.226 1.782 -2.226 C 1.294 -2.226 0.862 -2.144 0.486 -1.98 C 0.11 -1.816 -0.206 -1.588 -0.462 -1.296 C -0.718 -1.004 -0.91 -0.662 -1.038 -0.27 C -1.166 0.122 -1.23 0.547 -1.23 1.002 C -1.23 1.458 -1.166 1.885 -1.038 2.28" style="fill: rgb(0, 115, 192); fill-opacity: 1;"/>
      </g>
      <g transform="translate(113.8417 331.8857)">
        <path d="M 0 0 L 0 -1.308 L 0.024 -1.308 C 0.272 -0.804 0.576 -0.433 0.936 -0.192 C 1.296 0.048 1.752 0.159 2.304 0.144 L 2.304 -0.937 C 1.896 -0.937 1.548 -0.992 1.26 -1.105 C 0.972 -1.216 0.74 -1.38 0.564 -1.597 C 0.388 -1.812 0.26 -2.074 0.18 -2.382 C 0.1 -2.69 0.06 -3.044 0.06 -3.444 L 0.06 -6.204 L -0.96 -6.204 L -0.96 0 Z" style="fill: rgb(0, 115, 192); fill-opacity: 1;"/>
      </g>
      <g transform="translate(122.7333 325.6816)">
        <path d="M 0 0 L 0 6.096 L -2.208 6.096 L -2.208 6.912 C -1.92 6.912 -1.64 6.934 -1.368 6.978 C -1.096 7.021 -0.85 7.103 -0.63 7.225 C -0.41 7.344 -0.224 7.508 -0.072 7.716 C 0.08 7.924 0.184 8.188 0.24 8.508 L 1.02 8.508 L 1.02 0 Z" style="fill: rgb(0, 115, 192); fill-opacity: 1;"/>
      </g>
      <g transform="translate(128.8295 330.1035)">
        <path d="M 0 0 C -0.216 -0.1 -0.4 -0.236 -0.552 -0.408 C -0.704 -0.58 -0.818 -0.784 -0.893 -1.019 C -0.97 -1.256 -1.008 -1.506 -1.008 -1.769 C -1.008 -2.033 -0.968 -2.281 -0.888 -2.514 C -0.808 -2.746 -0.694 -2.945 -0.546 -3.113 C -0.398 -3.281 -0.214 -3.416 0.006 -3.516 C 0.226 -3.616 0.476 -3.666 0.756 -3.666 C 1.036 -3.666 1.282 -3.616 1.494 -3.516 C 1.706 -3.416 1.884 -3.277 2.028 -3.102 C 2.172 -2.926 2.282 -2.724 2.358 -2.496 C 2.434 -2.268 2.472 -2.029 2.472 -1.781 C 2.472 -1.518 2.438 -1.268 2.37 -1.031 C 2.302 -0.796 2.196 -0.592 2.052 -0.42 C 1.908 -0.248 1.728 -0.109 1.512 -0.006 C 1.296 0.098 1.044 0.15 0.756 0.15 C 0.468 0.15 0.216 0.1 0 0 M 1.848 2.838 C 1.6 3.07 1.272 3.186 0.864 3.186 C 0.432 3.186 0.084 3.08 -0.18 2.868 C -0.444 2.656 -0.65 2.389 -0.798 2.064 C -0.946 1.74 -1.048 1.391 -1.104 1.014 C -1.16 0.639 -1.192 0.286 -1.2 -0.042 L -1.176 -0.066 C -0.936 0.326 -0.638 0.609 -0.282 0.786 C 0.074 0.962 0.484 1.051 0.948 1.051 C 1.356 1.051 1.722 0.981 2.046 0.84 C 2.37 0.7 2.642 0.506 2.862 0.258 C 3.082 0.01 3.253 -0.281 3.372 -0.617 C 3.492 -0.954 3.552 -1.318 3.552 -1.71 C 3.552 -2.021 3.504 -2.346 3.408 -2.682 C 3.312 -3.018 3.154 -3.324 2.934 -3.6 C 2.714 -3.876 2.422 -4.103 2.058 -4.283 C 1.694 -4.464 1.244 -4.554 0.708 -4.554 C 0.076 -4.554 -0.432 -4.426 -0.816 -4.17 C -1.2 -3.914 -1.496 -3.586 -1.704 -3.186 C -1.912 -2.786 -2.05 -2.346 -2.118 -1.865 C -2.186 -1.386 -2.22 -0.922 -2.22 -0.474 C -2.22 0.109 -2.17 0.676 -2.07 1.225 C -1.97 1.772 -1.8 2.258 -1.559 2.682 C -1.32 3.106 -1 3.445 -0.6 3.702 C -0.2 3.958 0.304 4.086 0.912 4.086 C 1.616 4.086 2.176 3.9 2.592 3.528 C 3.008 3.156 3.248 2.618 3.312 1.914 L 2.292 1.914 C 2.244 2.299 2.096 2.606 1.848 2.838" style="fill: rgb(0, 115, 192); fill-opacity: 1;"/>
      </g>
      <g transform="translate(138.3159 329.6836)">
        <path d="M 0 0 C -0.076 0.275 -0.192 0.521 -0.348 0.738 C -0.504 0.954 -0.704 1.126 -0.948 1.254 C -1.192 1.382 -1.479 1.446 -1.806 1.446 C -2.15 1.446 -2.442 1.378 -2.682 1.242 C -2.922 1.105 -3.118 0.928 -3.27 0.708 C -3.422 0.488 -3.532 0.238 -3.6 -0.042 C -3.669 -0.322 -3.702 -0.605 -3.702 -0.895 C -3.702 -1.198 -3.666 -1.492 -3.594 -1.775 C -3.523 -2.061 -3.408 -2.311 -3.253 -2.525 C -3.096 -2.742 -2.895 -2.916 -2.646 -3.048 C -2.399 -3.18 -2.098 -3.246 -1.746 -3.246 C -1.395 -3.246 -1.1 -3.178 -0.864 -3.042 C -0.628 -2.906 -0.439 -2.727 -0.295 -2.502 C -0.15 -2.278 -0.046 -2.021 0.017 -1.734 C 0.081 -1.445 0.114 -1.15 0.114 -0.846 C 0.114 -0.559 0.076 -0.275 0 0 M -3.666 2.202 L -3.666 1.361 L -3.642 1.361 C -3.474 1.706 -3.211 1.956 -2.85 2.111 C -2.49 2.268 -2.094 2.346 -1.662 2.346 C -1.182 2.346 -0.764 2.258 -0.408 2.082 C -0.052 1.906 0.244 1.668 0.48 1.368 C 0.716 1.068 0.893 0.722 1.014 0.33 C 1.134 -0.062 1.194 -0.479 1.194 -0.918 C 1.194 -1.357 1.136 -1.773 1.019 -2.166 C 0.904 -2.559 0.727 -2.9 0.492 -3.191 C 0.256 -3.484 -0.041 -3.714 -0.396 -3.882 C -0.753 -4.05 -1.167 -4.134 -1.638 -4.134 C -1.791 -4.134 -1.961 -4.117 -2.149 -4.086 C -2.337 -4.054 -2.523 -4.002 -2.706 -3.93 C -2.89 -3.857 -3.065 -3.76 -3.228 -3.636 C -3.392 -3.512 -3.53 -3.357 -3.642 -3.174 L -3.666 -3.174 L -3.666 -6.365 L -4.686 -6.365 L -4.686 2.202 Z" style="fill: rgb(0, 115, 192); fill-opacity: 1;"/>
      </g>
      <g transform="translate(140.2172 331.8857)">
        <path d="M 0 0 L 1.308 0 L 2.796 -2.172 L 4.344 0 L 5.568 0 L 3.432 -2.856 L 5.832 -6.204 L 4.524 -6.204 L 2.796 -3.636 L 1.068 -6.204 L -0.168 -6.204 L 2.16 -2.94 Z" style="fill: rgb(0, 115, 192); fill-opacity: 1;"/>
      </g>
      <g transform="">
        <path d="M 150.225 328.537 L 146.757 328.537 L 146.757 329.498 L 150.225 329.498 Z" style="fill: rgb(0, 115, 192); fill-opacity: 1;"/>
      </g>
      <g transform="translate(154.0771 325.6816)">
        <path d="M 0 0 L 0 6.096 L -2.208 6.096 L -2.208 6.912 C -1.92 6.912 -1.64 6.934 -1.368 6.978 C -1.096 7.021 -0.85 7.103 -0.63 7.225 C -0.41 7.344 -0.224 7.508 -0.072 7.716 C 0.08 7.924 0.184 8.188 0.24 8.508 L 1.02 8.508 L 1.02 0 Z" style="fill: rgb(0, 115, 192); fill-opacity: 1;"/>
      </g>
      <g transform="translate(158.1572 332.3769)">
        <path d="M 0 0 C 0.112 0.369 0.286 0.686 0.522 0.955 C 0.758 1.223 1.052 1.433 1.404 1.584 C 1.756 1.736 2.156 1.812 2.604 1.812 C 2.972 1.812 3.318 1.759 3.642 1.65 C 3.966 1.543 4.248 1.387 4.488 1.183 C 4.728 0.979 4.918 0.725 5.058 0.421 C 5.198 0.117 5.268 -0.235 5.268 -0.635 C 5.268 -1.012 5.21 -1.344 5.094 -1.631 C 4.977 -1.92 4.824 -2.178 4.632 -2.405 C 4.44 -2.633 4.22 -2.84 3.972 -3.023 C 3.724 -3.207 3.468 -3.383 3.204 -3.551 C 2.94 -3.711 2.676 -3.869 2.412 -4.025 C 2.148 -4.182 1.906 -4.348 1.686 -4.523 C 1.466 -4.699 1.278 -4.889 1.122 -5.094 C 0.966 -5.297 0.864 -5.531 0.816 -5.795 L 5.184 -5.795 L 5.184 -6.695 L -0.372 -6.695 C -0.332 -6.191 -0.242 -5.762 -0.102 -5.405 C 0.038 -5.049 0.216 -4.739 0.432 -4.475 C 0.648 -4.211 0.892 -3.979 1.164 -3.779 C 1.436 -3.58 1.72 -3.392 2.016 -3.215 C 2.376 -2.991 2.692 -2.785 2.964 -2.598 C 3.236 -2.41 3.462 -2.219 3.642 -2.027 C 3.822 -1.836 3.958 -1.627 4.05 -1.403 C 4.142 -1.18 4.188 -0.92 4.188 -0.623 C 4.188 -0.392 4.143 -0.182 4.056 0.007 C 3.968 0.194 3.85 0.357 3.702 0.492 C 3.554 0.629 3.38 0.732 3.18 0.805 C 2.98 0.877 2.768 0.912 2.544 0.912 C 2.247 0.912 1.994 0.851 1.782 0.727 C 1.57 0.603 1.396 0.441 1.26 0.24 C 1.124 0.041 1.026 -0.185 0.966 -0.437 C 0.906 -0.689 0.88 -0.943 0.888 -1.199 L -0.132 -1.199 C -0.156 -0.768 -0.112 -0.367 0 0" style="fill: rgb(0, 115, 192); fill-opacity: 1;"/>
      </g>
      <g transform="translate(165.7832 328.7949)">
        <path d="M 0 0 C 0.02 -0.395 0.084 -0.768 0.192 -1.115 C 0.3 -1.463 0.474 -1.758 0.714 -1.997 C 0.954 -2.237 1.29 -2.357 1.722 -2.357 C 2.154 -2.357 2.49 -2.237 2.73 -1.997 C 2.97 -1.758 3.144 -1.463 3.252 -1.115 C 3.36 -0.768 3.424 -0.395 3.444 0 C 3.464 0.397 3.474 0.755 3.474 1.074 C 3.474 1.283 3.472 1.513 3.468 1.765 C 3.464 2.017 3.444 2.268 3.408 2.521 C 3.372 2.773 3.32 3.018 3.252 3.259 C 3.184 3.498 3.084 3.709 2.952 3.889 C 2.82 4.068 2.654 4.215 2.454 4.326 C 2.254 4.439 2.01 4.494 1.722 4.494 C 1.434 4.494 1.19 4.439 0.99 4.326 C 0.79 4.215 0.624 4.068 0.492 3.889 C 0.36 3.709 0.26 3.498 0.192 3.259 C 0.124 3.018 0.072 2.773 0.036 2.521 C 0 2.268 -0.02 2.017 -0.024 1.765 C -0.028 1.513 -0.03 1.283 -0.03 1.074 C -0.03 0.755 -0.02 0.397 0 0 M -1.086 2.035 C -1.07 2.371 -1.03 2.699 -0.966 3.018 C -0.902 3.338 -0.81 3.643 -0.69 3.931 C -0.57 4.219 -0.406 4.471 -0.198 4.687 C 0.01 4.902 0.272 5.074 0.588 5.203 C 0.904 5.33 1.282 5.395 1.722 5.395 C 2.162 5.395 2.54 5.33 2.856 5.203 C 3.172 5.074 3.434 4.902 3.642 4.687 C 3.85 4.471 4.014 4.219 4.134 3.931 C 4.254 3.643 4.346 3.338 4.41 3.018 C 4.474 2.699 4.514 2.371 4.53 2.035 C 4.546 1.699 4.554 1.375 4.554 1.062 C 4.554 0.75 4.546 0.427 4.53 0.091 C 4.514 -0.245 4.474 -0.573 4.41 -0.893 C 4.346 -1.213 4.254 -1.516 4.134 -1.799 C 4.014 -2.084 3.85 -2.334 3.642 -2.549 C 3.434 -2.766 3.174 -2.936 2.862 -3.059 C 2.55 -3.184 2.17 -3.245 1.722 -3.245 C 1.282 -3.245 0.904 -3.184 0.588 -3.059 C 0.272 -2.936 0.01 -2.766 -0.198 -2.549 C -0.406 -2.334 -0.57 -2.084 -0.69 -1.799 C -0.81 -1.516 -0.902 -1.213 -0.966 -0.893 C -1.03 -0.573 -1.07 -0.245 -1.086 0.091 C -1.102 0.427 -1.11 0.75 -1.11 1.062 C -1.11 1.375 -1.102 1.699 -1.086 2.035" style="fill: rgb(0, 115, 192); fill-opacity: 1;"/>
      </g>
      <g transform="translate(176.3315 329.6836)">
        <path d="M 0 0 C -0.076 0.275 -0.192 0.521 -0.348 0.738 C -0.504 0.954 -0.704 1.126 -0.948 1.254 C -1.192 1.382 -1.479 1.446 -1.806 1.446 C -2.15 1.446 -2.442 1.378 -2.682 1.242 C -2.922 1.105 -3.118 0.928 -3.27 0.708 C -3.422 0.488 -3.532 0.238 -3.6 -0.042 C -3.669 -0.322 -3.702 -0.605 -3.702 -0.895 C -3.702 -1.198 -3.666 -1.492 -3.594 -1.775 C -3.523 -2.061 -3.408 -2.311 -3.252 -2.525 C -3.096 -2.742 -2.895 -2.916 -2.646 -3.048 C -2.398 -3.18 -2.098 -3.246 -1.746 -3.246 C -1.395 -3.246 -1.1 -3.178 -0.864 -3.042 C -0.628 -2.906 -0.439 -2.727 -0.294 -2.502 C -0.15 -2.278 -0.046 -2.021 0.018 -1.734 C 0.081 -1.445 0.114 -1.15 0.114 -0.846 C 0.114 -0.559 0.076 -0.275 0 0 M -3.666 2.202 L -3.666 1.361 L -3.642 1.361 C -3.474 1.706 -3.211 1.956 -2.85 2.111 C -2.49 2.268 -2.094 2.346 -1.662 2.346 C -1.182 2.346 -0.764 2.258 -0.408 2.082 C -0.052 1.906 0.244 1.668 0.48 1.368 C 0.716 1.068 0.893 0.722 1.014 0.33 C 1.134 -0.062 1.194 -0.479 1.194 -0.918 C 1.194 -1.357 1.136 -1.773 1.02 -2.166 C 0.904 -2.559 0.727 -2.9 0.492 -3.191 C 0.256 -3.484 -0.04 -3.714 -0.396 -3.882 C -0.752 -4.05 -1.167 -4.134 -1.638 -4.134 C -1.79 -4.134 -1.961 -4.117 -2.148 -4.086 C -2.336 -4.054 -2.523 -4.002 -2.706 -3.93 C -2.89 -3.857 -3.064 -3.76 -3.228 -3.636 C -3.392 -3.512 -3.53 -3.357 -3.642 -3.174 L -3.666 -3.174 L -3.666 -6.365 L -4.686 -6.365 L -4.686 2.202 Z" style="fill: rgb(0, 115, 192); fill-opacity: 1;"/>
      </g>
      <g transform="translate(178.2329 331.8857)">
        <path d="M 0 0 L 1.308 0 L 2.796 -2.172 L 4.344 0 L 5.568 0 L 3.432 -2.856 L 5.832 -6.204 L 4.524 -6.204 L 2.796 -3.636 L 1.068 -6.204 L -0.168 -6.204 L 2.16 -2.94 Z" style="fill: rgb(0, 115, 192); fill-opacity: 1;"/>
      </g>
      <g transform="translate(335.6333 348.6504)">
        <path d="M 0 0 L 0 -7.607 L 4.536 -7.607 L 4.536 -8.568 L -1.14 -8.568 L -1.14 0 Z" style="fill: rgb(0, 115, 192); fill-opacity: 1;"/>
      </g>
      <g transform="translate(344.3334 343.0761)">
        <path d="M 0 0 C -0.209 -0.044 -0.426 -0.08 -0.654 -0.107 C -0.883 -0.136 -1.113 -0.168 -1.345 -0.203 C -1.576 -0.24 -1.785 -0.298 -1.969 -0.377 C -2.152 -0.457 -2.303 -0.572 -2.418 -0.72 C -2.535 -0.867 -2.592 -1.07 -2.592 -1.326 C -2.592 -1.494 -2.558 -1.636 -2.49 -1.752 C -2.423 -1.867 -2.334 -1.961 -2.226 -2.033 C -2.119 -2.105 -1.99 -2.158 -1.842 -2.189 C -1.694 -2.222 -1.545 -2.238 -1.392 -2.238 C -1.057 -2.238 -0.768 -2.191 -0.528 -2.1 C -0.289 -2.008 -0.093 -1.892 0.06 -1.752 C 0.211 -1.611 0.324 -1.459 0.396 -1.295 C 0.467 -1.132 0.504 -0.978 0.504 -0.834 L 0.504 0.211 C 0.375 0.114 0.207 0.045 0 0 M 1.428 -3.125 C 1.164 -3.125 0.953 -3.052 0.797 -2.904 C 0.642 -2.756 0.564 -2.514 0.564 -2.178 C 0.283 -2.514 -0.043 -2.756 -0.414 -2.904 C -0.787 -3.052 -1.188 -3.125 -1.621 -3.125 C -1.9 -3.125 -2.164 -3.096 -2.412 -3.035 C -2.66 -2.976 -2.879 -2.875 -3.066 -2.736 C -3.254 -2.596 -3.402 -2.416 -3.51 -2.195 C -3.619 -1.976 -3.672 -1.709 -3.672 -1.397 C -3.672 -1.046 -3.612 -0.758 -3.492 -0.533 C -3.373 -0.31 -3.215 -0.128 -3.018 0.012 C -2.822 0.152 -2.599 0.258 -2.347 0.33 C -2.095 0.402 -1.836 0.463 -1.572 0.51 C -1.293 0.566 -1.026 0.608 -0.774 0.637 C -0.522 0.664 -0.301 0.704 -0.108 0.756 C 0.084 0.809 0.235 0.885 0.348 0.984 C 0.459 1.084 0.516 1.23 0.516 1.422 C 0.516 1.646 0.474 1.826 0.39 1.963 C 0.306 2.098 0.197 2.202 0.066 2.274 C -0.066 2.346 -0.215 2.395 -0.379 2.418 C -0.543 2.442 -0.705 2.455 -0.864 2.455 C -1.297 2.455 -1.656 2.372 -1.944 2.209 C -2.232 2.045 -2.389 1.734 -2.412 1.278 L -3.433 1.278 C -3.416 1.662 -3.336 1.986 -3.192 2.25 C -3.049 2.514 -2.856 2.729 -2.617 2.893 C -2.377 3.057 -2.1 3.174 -1.789 3.246 C -1.476 3.318 -1.148 3.354 -0.805 3.354 C -0.524 3.354 -0.246 3.334 0.029 3.295 C 0.306 3.254 0.556 3.172 0.779 3.049 C 1.004 2.924 1.184 2.75 1.319 2.526 C 1.455 2.303 1.524 2.01 1.524 1.65 L 1.524 -1.541 C 1.524 -1.781 1.537 -1.957 1.566 -2.07 C 1.594 -2.182 1.688 -2.238 1.848 -2.238 C 1.936 -2.238 2.039 -2.218 2.16 -2.178 L 2.16 -2.97 C 1.983 -3.074 1.74 -3.125 1.428 -3.125" style="fill: rgb(0, 115, 192); fill-opacity: 1;"/>
      </g>
      <g transform="translate(348.3647 346.2871)">
        <path d="M 0 0 L 0 -1.309 L 0.023 -1.309 C 0.272 -0.805 0.576 -0.433 0.936 -0.192 C 1.296 0.047 1.752 0.159 2.305 0.143 L 2.305 -0.937 C 1.897 -0.937 1.549 -0.992 1.26 -1.105 C 0.973 -1.217 0.74 -1.381 0.565 -1.597 C 0.389 -1.812 0.26 -2.074 0.18 -2.383 C 0.1 -2.691 0.061 -3.045 0.061 -3.445 L 0.061 -6.205 L -0.96 -6.205 L -0.96 0 Z" style="fill: rgb(0, 115, 192); fill-opacity: 1;"/>
      </g>
      <g transform="translate(354.4545 341.1211)">
        <path d="M 0 0 C 0.236 0.139 0.426 0.323 0.57 0.551 C 0.715 0.779 0.82 1.037 0.889 1.325 C 0.956 1.613 0.99 1.901 0.99 2.189 C 0.99 2.461 0.959 2.729 0.895 2.994 C 0.83 3.258 0.729 3.496 0.588 3.707 C 0.448 3.92 0.266 4.09 0.043 4.217 C -0.182 4.346 -0.453 4.41 -0.773 4.41 C -1.102 4.41 -1.382 4.348 -1.613 4.224 C -1.846 4.1 -2.035 3.934 -2.184 3.725 C -2.332 3.518 -2.439 3.277 -2.508 3.006 C -2.576 2.733 -2.609 2.449 -2.609 2.153 C -2.609 1.873 -2.582 1.594 -2.525 1.313 C -2.47 1.033 -2.373 0.779 -2.238 0.551 C -2.102 0.323 -1.922 0.139 -1.697 0 C -1.474 -0.141 -1.193 -0.211 -0.857 -0.211 C -0.521 -0.211 -0.236 -0.141 0 0 M 1.303 -2.791 C 0.838 -3.295 0.11 -3.547 -0.881 -3.547 C -1.17 -3.547 -1.463 -3.515 -1.764 -3.451 C -2.063 -3.387 -2.336 -3.283 -2.58 -3.139 C -2.824 -2.994 -3.025 -2.807 -3.186 -2.574 C -3.346 -2.342 -3.434 -2.059 -3.449 -1.723 L -2.43 -1.723 C -2.422 -1.906 -2.363 -2.063 -2.256 -2.19 C -2.147 -2.318 -2.016 -2.422 -1.859 -2.502 C -1.703 -2.582 -1.533 -2.641 -1.35 -2.677 C -1.166 -2.713 -0.99 -2.73 -0.822 -2.73 C -0.485 -2.73 -0.201 -2.672 0.03 -2.557 C 0.262 -2.44 0.455 -2.281 0.606 -2.076 C 0.758 -1.873 0.868 -1.627 0.937 -1.338 C 1.004 -1.051 1.039 -0.734 1.039 -0.391 L 1.039 0.018 L 1.015 0.018 C 0.838 -0.367 0.572 -0.648 0.217 -0.828 C -0.14 -1.009 -0.518 -1.099 -0.918 -1.099 C -1.382 -1.099 -1.785 -1.015 -2.129 -0.847 C -2.474 -0.679 -2.762 -0.453 -2.994 -0.168 C -3.225 0.115 -3.4 0.447 -3.516 0.828 C -3.632 1.207 -3.689 1.609 -3.689 2.033 C -3.689 2.401 -3.642 2.779 -3.545 3.168 C -3.449 3.555 -3.289 3.907 -3.065 4.224 C -2.842 4.539 -2.545 4.799 -2.178 5.004 C -1.81 5.207 -1.357 5.31 -0.822 5.31 C -0.43 5.31 -0.07 5.223 0.258 5.051 C 0.586 4.879 0.842 4.621 1.026 4.277 L 1.039 4.277 L 1.039 5.166 L 1.998 5.166 L 1.998 -0.511 C 1.998 -1.526 1.766 -2.287 1.303 -2.791" style="fill: rgb(0, 115, 192); fill-opacity: 1;"/>
      </g>
      <g transform="translate(362.1342 344.4629)">
        <path d="M 0 0 C -0.092 0.216 -0.215 0.402 -0.371 0.558 C -0.527 0.714 -0.712 0.838 -0.924 0.93 C -1.136 1.021 -1.369 1.068 -1.625 1.068 C -1.89 1.068 -2.128 1.021 -2.34 0.93 C -2.552 0.838 -2.734 0.711 -2.886 0.552 C -3.037 0.392 -3.158 0.205 -3.246 -0.006 C -3.334 -0.219 -3.386 -0.444 -3.401 -0.685 L 0.162 -0.685 C 0.147 -0.444 0.092 -0.217 0 0 M 0.246 -3.984 C -0.218 -4.336 -0.802 -4.512 -1.506 -4.512 C -2.002 -4.512 -2.432 -4.432 -2.795 -4.272 C -3.16 -4.112 -3.466 -3.889 -3.713 -3.601 C -3.961 -3.313 -4.147 -2.969 -4.271 -2.568 C -4.396 -2.168 -4.466 -1.732 -4.481 -1.26 C -4.481 -0.789 -4.41 -0.356 -4.266 0.035 C -4.121 0.428 -3.92 0.768 -3.66 1.056 C -3.4 1.344 -3.092 1.567 -2.735 1.728 C -2.38 1.888 -1.99 1.968 -1.565 1.968 C -1.014 1.968 -0.556 1.854 -0.191 1.625 C 0.172 1.397 0.465 1.107 0.685 0.756 C 0.904 0.403 1.057 0.02 1.141 -0.396 C 1.225 -0.812 1.258 -1.209 1.242 -1.584 L -3.401 -1.584 C -3.41 -1.856 -3.377 -2.114 -3.306 -2.358 C -3.233 -2.603 -3.117 -2.818 -2.957 -3.006 C -2.798 -3.194 -2.594 -3.344 -2.346 -3.457 C -2.098 -3.568 -1.806 -3.625 -1.47 -3.625 C -1.037 -3.625 -0.684 -3.525 -0.408 -3.324 C -0.131 -3.125 0.051 -2.82 0.139 -2.412 L 1.147 -2.412 C 1.01 -3.108 0.711 -3.633 0.246 -3.984" style="fill: rgb(0, 115, 192); fill-opacity: 1;"/>
      </g>
      <g transform="translate(365.3569 346.2871)">
        <path d="M 0 0 L 0 -1.309 L 0.023 -1.309 C 0.271 -0.805 0.576 -0.433 0.935 -0.192 C 1.295 0.047 1.752 0.159 2.304 0.143 L 2.304 -0.937 C 1.895 -0.937 1.548 -0.992 1.26 -1.105 C 0.972 -1.217 0.739 -1.381 0.563 -1.597 C 0.388 -1.812 0.26 -2.074 0.18 -2.383 C 0.1 -2.691 0.06 -3.045 0.06 -3.445 L 0.06 -6.205 L -0.961 -6.205 L -0.961 0 Z" style="fill: rgb(0, 115, 192); fill-opacity: 1;"/>
      </g>
      <g transform="translate(318.2573 330.9863)">
        <path d="M 0 0 L 0 0.9 L 1.044 0.9 L 1.044 1.824 C 1.044 2.328 1.189 2.711 1.482 2.971 C 1.773 3.23 2.199 3.36 2.76 3.36 C 2.855 3.36 2.966 3.352 3.09 3.336 C 3.214 3.32 3.324 3.297 3.42 3.264 L 3.42 2.377 C 3.332 2.408 3.236 2.43 3.132 2.442 C 3.027 2.454 2.932 2.461 2.844 2.461 C 2.596 2.461 2.404 2.412 2.268 2.316 C 2.132 2.221 2.064 2.036 2.064 1.764 L 2.064 0.9 L 3.264 0.9 L 3.264 0 L 2.064 0 L 2.064 -5.304 L 1.044 -5.304 L 1.044 0 Z" style="fill: rgb(0, 115, 192); fill-opacity: 1;"/>
      </g>
      <g transform="translate(323.3276 327.7773)">
        <path d="M 0 0 C 0.1 -0.293 0.237 -0.537 0.414 -0.732 C 0.59 -0.929 0.795 -1.078 1.031 -1.183 C 1.268 -1.287 1.518 -1.339 1.781 -1.339 C 2.045 -1.339 2.295 -1.287 2.531 -1.183 C 2.768 -1.078 2.973 -0.929 3.149 -0.732 C 3.325 -0.537 3.463 -0.293 3.564 0 C 3.664 0.291 3.713 0.625 3.713 1.002 C 3.713 1.377 3.664 1.711 3.564 2.004 C 3.463 2.295 3.325 2.541 3.149 2.741 C 2.973 2.941 2.768 3.094 2.531 3.197 C 2.295 3.301 2.045 3.353 1.781 3.353 C 1.518 3.353 1.268 3.301 1.031 3.197 C 0.795 3.094 0.59 2.941 0.414 2.741 C 0.237 2.541 0.1 2.295 0 2.004 C -0.101 1.711 -0.15 1.377 -0.15 1.002 C -0.15 0.625 -0.101 0.291 0 0 M -1.039 2.279 C -0.91 2.676 -0.719 3.02 -0.463 3.311 C -0.207 3.603 0.109 3.834 0.485 4.002 C 0.861 4.17 1.293 4.254 1.781 4.254 C 2.277 4.254 2.711 4.17 3.084 4.002 C 3.455 3.834 3.77 3.603 4.025 3.311 C 4.281 3.02 4.473 2.676 4.602 2.279 C 4.73 1.883 4.793 1.457 4.793 1.002 C 4.793 0.545 4.73 0.121 4.602 -0.271 C 4.473 -0.662 4.281 -1.005 4.025 -1.297 C 3.77 -1.589 3.455 -1.816 3.084 -1.98 C 2.711 -2.145 2.277 -2.227 1.781 -2.227 C 1.293 -2.227 0.861 -2.145 0.485 -1.98 C 0.109 -1.816 -0.207 -1.589 -0.463 -1.297 C -0.719 -1.005 -0.91 -0.662 -1.039 -0.271 C -1.166 0.121 -1.23 0.545 -1.23 1.002 C -1.23 1.457 -1.166 1.883 -1.039 2.279" style="fill: rgb(0, 115, 192); fill-opacity: 1;"/>
      </g>
      <g transform="translate(330.2456 331.8867)">
        <path d="M 0 0 L 0 -1.309 L 0.023 -1.309 C 0.271 -0.805 0.576 -0.432 0.936 -0.191 C 1.295 0.048 1.752 0.16 2.304 0.145 L 2.304 -0.936 C 1.896 -0.936 1.548 -0.992 1.26 -1.103 C 0.972 -1.217 0.739 -1.38 0.563 -1.596 C 0.388 -1.812 0.26 -2.074 0.18 -2.383 C 0.1 -2.689 0.06 -3.044 0.06 -3.444 L 0.06 -6.204 L -0.961 -6.204 L -0.961 0 Z" style="fill: rgb(0, 115, 192); fill-opacity: 1;"/>
      </g>
      <g transform="translate(339.1362 325.6826)">
        <path d="M 0 0 L 0 6.097 L -2.207 6.097 L -2.207 6.912 C -1.92 6.912 -1.64 6.935 -1.367 6.978 C -1.096 7.022 -0.85 7.105 -0.629 7.224 C -0.41 7.345 -0.224 7.508 -0.071 7.716 C 0.08 7.924 0.185 8.189 0.24 8.508 L 1.02 8.508 L 1.02 0 Z" style="fill: rgb(0, 115, 192); fill-opacity: 1;"/>
      </g>
      <g transform="translate(343.2172 332.3789)">
        <path d="M 0 0 C 0.112 0.367 0.286 0.685 0.522 0.953 C 0.758 1.222 1.052 1.432 1.403 1.584 C 1.756 1.735 2.155 1.811 2.604 1.811 C 2.972 1.811 3.317 1.758 3.642 1.65 C 3.966 1.541 4.248 1.386 4.487 1.182 C 4.728 0.978 4.918 0.724 5.058 0.42 C 5.198 0.115 5.269 -0.236 5.269 -0.637 C 5.269 -1.012 5.21 -1.344 5.094 -1.633 C 4.978 -1.92 4.823 -2.178 4.632 -2.406 C 4.44 -2.635 4.22 -2.84 3.972 -3.024 C 3.724 -3.209 3.468 -3.385 3.204 -3.553 C 2.94 -3.713 2.676 -3.87 2.411 -4.026 C 2.147 -4.182 1.905 -4.349 1.687 -4.524 C 1.466 -4.7 1.278 -4.891 1.122 -5.094 C 0.966 -5.299 0.864 -5.532 0.815 -5.797 L 5.185 -5.797 L 5.185 -6.696 L -0.372 -6.696 C -0.332 -6.192 -0.242 -5.762 -0.103 -5.406 C 0.038 -5.051 0.216 -4.74 0.432 -4.477 C 0.647 -4.213 0.892 -3.98 1.164 -3.78 C 1.436 -3.58 1.72 -3.393 2.016 -3.217 C 2.376 -2.992 2.692 -2.786 2.964 -2.598 C 3.235 -2.41 3.462 -2.221 3.642 -2.028 C 3.821 -1.836 3.958 -1.629 4.05 -1.404 C 4.142 -1.18 4.189 -0.92 4.189 -0.625 C 4.189 -0.393 4.144 -0.182 4.056 0.006 C 3.968 0.193 3.85 0.355 3.702 0.492 C 3.554 0.627 3.38 0.732 3.18 0.804 C 2.979 0.875 2.768 0.912 2.544 0.912 C 2.247 0.912 1.993 0.85 1.782 0.726 C 1.569 0.602 1.396 0.439 1.26 0.24 C 1.124 0.039 1.026 -0.186 0.966 -0.439 C 0.905 -0.691 0.88 -0.944 0.888 -1.2 L -0.132 -1.2 C -0.156 -0.768 -0.112 -0.368 0 0" style="fill: rgb(0, 115, 192); fill-opacity: 1;"/>
      </g>
      <g transform="translate(350.8432 328.7968)">
        <path d="M 0 0 C 0.02 -0.396 0.084 -0.768 0.191 -1.116 C 0.3 -1.465 0.474 -1.758 0.714 -1.998 C 0.953 -2.238 1.289 -2.358 1.722 -2.358 C 2.154 -2.358 2.49 -2.238 2.73 -1.998 C 2.97 -1.758 3.144 -1.465 3.252 -1.116 C 3.359 -0.768 3.424 -0.396 3.443 0 C 3.463 0.396 3.474 0.754 3.474 1.074 C 3.474 1.281 3.472 1.512 3.468 1.764 C 3.463 2.016 3.443 2.268 3.408 2.52 C 3.371 2.771 3.32 3.018 3.252 3.258 C 3.184 3.498 3.084 3.707 2.951 3.888 C 2.82 4.068 2.654 4.213 2.453 4.326 C 2.254 4.437 2.01 4.494 1.722 4.494 C 1.434 4.494 1.189 4.437 0.99 4.326 C 0.789 4.213 0.623 4.068 0.492 3.888 C 0.359 3.707 0.26 3.498 0.191 3.258 C 0.123 3.018 0.072 2.771 0.035 2.52 C 0 2.268 -0.021 2.016 -0.024 1.764 C -0.028 1.512 -0.03 1.281 -0.03 1.074 C -0.03 0.754 -0.021 0.396 0 0 M -1.086 2.033 C -1.07 2.369 -1.03 2.697 -0.967 3.018 C -0.902 3.338 -0.811 3.642 -0.69 3.93 C -0.57 4.218 -0.406 4.47 -0.198 4.686 C 0.01 4.902 0.271 5.074 0.588 5.201 C 0.904 5.33 1.281 5.394 1.722 5.394 C 2.162 5.394 2.539 5.33 2.855 5.201 C 3.172 5.074 3.434 4.902 3.642 4.686 C 3.85 4.47 4.014 4.218 4.134 3.93 C 4.254 3.642 4.346 3.338 4.41 3.018 C 4.474 2.697 4.514 2.369 4.529 2.033 C 4.546 1.697 4.554 1.373 4.554 1.062 C 4.554 0.75 4.546 0.426 4.529 0.09 C 4.514 -0.246 4.474 -0.574 4.41 -0.895 C 4.346 -1.215 4.254 -1.517 4.134 -1.801 C 4.014 -2.084 3.85 -2.334 3.642 -2.551 C 3.434 -2.766 3.174 -2.937 2.861 -3.061 C 2.55 -3.184 2.17 -3.246 1.722 -3.246 C 1.281 -3.246 0.904 -3.184 0.588 -3.061 C 0.271 -2.937 0.01 -2.766 -0.198 -2.551 C -0.406 -2.334 -0.57 -2.084 -0.69 -1.801 C -0.811 -1.517 -0.902 -1.215 -0.967 -0.895 C -1.03 -0.574 -1.07 -0.246 -1.086 0.09 C -1.103 0.426 -1.11 0.75 -1.11 1.062 C -1.11 1.373 -1.103 1.697 -1.086 2.033" style="fill: rgb(0, 115, 192); fill-opacity: 1;"/>
      </g>
      <g transform="translate(361.3911 329.6845)">
        <path d="M 0 0 C -0.076 0.276 -0.192 0.522 -0.349 0.738 C -0.505 0.954 -0.704 1.126 -0.948 1.254 C -1.192 1.382 -1.479 1.446 -1.806 1.446 C -2.15 1.446 -2.442 1.378 -2.683 1.242 C -2.923 1.106 -3.118 0.929 -3.271 0.708 C -3.423 0.487 -3.532 0.237 -3.601 -0.042 C -3.669 -0.322 -3.702 -0.606 -3.702 -0.894 C -3.702 -1.198 -3.666 -1.492 -3.595 -1.776 C -3.522 -2.06 -3.408 -2.31 -3.253 -2.526 C -3.097 -2.742 -2.895 -2.916 -2.646 -3.048 C -2.398 -3.181 -2.099 -3.246 -1.746 -3.246 C -1.395 -3.246 -1.101 -3.179 -0.864 -3.042 C -0.628 -2.906 -0.439 -2.725 -0.294 -2.502 C -0.15 -2.278 -0.046 -2.022 0.018 -1.733 C 0.081 -1.446 0.114 -1.149 0.114 -0.847 C 0.114 -0.558 0.075 -0.276 0 0 M -3.666 2.202 L -3.666 1.362 L -3.642 1.362 C -3.474 1.706 -3.21 1.956 -2.851 2.112 C -2.49 2.269 -2.095 2.347 -1.662 2.347 C -1.183 2.347 -0.765 2.258 -0.408 2.082 C -0.052 1.905 0.243 1.668 0.479 1.368 C 0.716 1.067 0.893 0.722 1.014 0.33 C 1.134 -0.062 1.194 -0.478 1.194 -0.918 C 1.194 -1.358 1.136 -1.774 1.02 -2.166 C 0.903 -2.558 0.728 -2.899 0.491 -3.192 C 0.256 -3.483 -0.04 -3.714 -0.396 -3.882 C -0.753 -4.05 -1.167 -4.134 -1.638 -4.134 C -1.79 -4.134 -1.96 -4.118 -2.148 -4.086 C -2.337 -4.054 -2.522 -4.002 -2.706 -3.931 C -2.89 -3.858 -3.064 -3.761 -3.228 -3.636 C -3.392 -3.513 -3.53 -3.358 -3.642 -3.174 L -3.666 -3.174 L -3.666 -6.366 L -4.687 -6.366 L -4.687 2.202 Z" style="fill: rgb(0, 115, 192); fill-opacity: 1;"/>
      </g>
      <g transform="translate(363.2924 331.8867)">
        <path d="M 0 0 L 1.309 0 L 2.796 -2.172 L 4.344 0 L 5.568 0 L 3.432 -2.855 L 5.832 -6.204 L 4.523 -6.204 L 2.796 -3.637 L 1.068 -6.204 L -0.168 -6.204 L 2.16 -2.939 Z" style="fill: rgb(0, 115, 192); fill-opacity: 1;"/>
      </g>
      <g transform="translate(379.1928 329.1269)">
        <path d="M 0 0 L 0 -0.816 L -2.616 -0.816 L -2.616 -3.444 L -3.432 -3.444 L -3.432 -0.816 L -6.048 -0.816 L -6.048 0 L -3.432 0 L -3.432 2.627 L -2.616 2.627 L -2.616 0 Z" style="fill: rgb(0, 115, 192); fill-opacity: 1;"/>
      </g>
      <g transform="translate(152.6083 168.5454)">
        <path d="M 0 0 C -8.995 0 -16.288 -7.293 -16.288 -16.29 C -16.288 -23.487 -11.621 -29.592 -5.148 -31.747 C -4.333 -31.896 -4.036 -31.393 -4.036 -30.961 C -4.036 -30.575 -4.05 -29.55 -4.058 -28.191 C -8.589 -29.175 -9.545 -26.007 -9.545 -26.007 C -10.286 -24.125 -11.354 -23.624 -11.354 -23.624 C -12.833 -22.614 -11.242 -22.634 -11.242 -22.634 C -9.607 -22.749 -8.747 -24.313 -8.747 -24.313 C -7.294 -26.802 -4.934 -26.083 -4.006 -25.666 C -3.858 -24.614 -3.438 -23.896 -2.972 -23.489 C -6.589 -23.078 -10.392 -21.68 -10.392 -15.438 C -10.392 -13.66 -9.757 -12.206 -8.715 -11.067 C -8.883 -10.655 -9.442 -8.999 -8.556 -6.756 C -4.076 -8.426 -7.188 -6.318 -4.076 -8.426 C -2.777 -8.064 -1.383 -7.884 0.002 -7.878 C 1.385 -7.884 2.779 -8.064 4.08 -8.426 C 7.19 -6.318 8.555 -6.756 8.555 -6.756 C 9.444 -8.999 8.885 -10.655 8.717 -11.067 C 9.761 -12.206 10.392 -13.66 10.392 -15.438 C 10.392 -21.696 6.583 -23.073 2.954 -23.476 C 3.539 -23.979 4.06 -24.973 4.06 -26.493 C 4.06 -28.67 4.04 -30.427 4.04 -30.961 C 4.04 -31.397 4.333 -31.904 5.16 -31.745 C 11.628 -29.586 16.291 -23.485 16.291 -16.29 C 16.291 -7.293 8.997 0 0 0" style="fill: rgb(255, 255, 255); fill-rule: evenodd; fill-opacity: 1;"/>
      </g>
      <g transform="translate(350.6088 217.5547)">
        <path d="M 0 0 C -33.347 0 -60.388 -27.035 -60.388 -60.388 C -60.388 -87.068 -43.085 -109.704 -19.091 -117.689 C -16.073 -118.248 -14.965 -116.379 -14.965 -114.784 C -14.965 -113.345 -15.021 -108.587 -15.047 -103.541 C -31.847 -107.194 -35.392 -96.416 -35.392 -96.416 C -38.139 -89.437 -42.097 -87.58 -42.097 -87.58 C -47.576 -83.832 -41.684 -83.909 -41.684 -83.909 C -35.62 -84.335 -32.427 -90.133 -32.427 -90.133 C -27.041 -99.364 -18.3 -96.695 -14.854 -95.152 C -14.311 -91.25 -12.747 -88.585 -11.02 -87.077 C -24.433 -85.551 -38.533 -80.372 -38.533 -57.233 C -38.533 -50.641 -36.174 -45.254 -32.311 -41.025 C -32.938 -39.503 -35.005 -33.361 -31.725 -25.043 C -15.115 -31.234 -26.654 -23.421 -15.115 -31.234 C -10.298 -29.896 -5.132 -29.225 0 -29.201 C 5.132 -29.225 10.302 -29.896 15.128 -31.234 C 26.654 -23.421 31.718 -25.043 31.718 -25.043 C 35.005 -33.361 32.938 -39.503 32.311 -41.025 C 36.183 -45.254 38.525 -50.641 38.525 -57.233 C 38.525 -80.428 24.398 -85.534 10.951 -87.029 C 13.117 -88.903 15.047 -92.578 15.047 -98.212 C 15.047 -106.292 14.978 -112.795 14.978 -114.784 C 14.978 -116.392 16.064 -118.275 19.125 -117.682 C 43.107 -109.688 60.388 -87.06 60.388 -60.388 C 60.388 -27.035 33.351 0 0 0" style="fill: rgb(255, 255, 255); fill-rule: evenodd; fill-opacity: 1;"/>
      </g>
      <g transform="translate(313.0932 130.8515)">
        <path d="M 0 0 C -0.133 -0.301 -0.605 -0.391 -1.035 -0.184 C -1.474 0.013 -1.719 0.422 -1.577 0.723 C -1.447 1.031 -0.975 1.117 -0.537 0.911 C -0.099 0.714 0.151 0.301 0 0" style="fill: rgb(255, 255, 255); fill-opacity: 1;"/>
      </g>
      <g transform="translate(315.5395 128.123)">
        <path d="M 0 0 C -0.288 -0.267 -0.852 -0.143 -1.233 0.279 C -1.629 0.7 -1.702 1.264 -1.41 1.534 C -1.113 1.801 -0.567 1.676 -0.172 1.255 C 0.224 0.829 0.301 0.27 0 0" style="fill: rgb(255, 255, 255); fill-opacity: 1;"/>
      </g>
      <g transform="translate(317.9204 124.6455)">
        <path d="M 0 0 C -0.37 -0.258 -0.976 -0.017 -1.35 0.52 C -1.72 1.058 -1.72 1.702 -1.341 1.96 C -0.967 2.218 -0.37 1.985 0.009 1.453 C 0.378 0.907 0.378 0.263 0 0" style="fill: rgb(255, 255, 255); fill-opacity: 1;"/>
      </g>
      <g transform="translate(321.1821 121.2851)">
        <path d="M 0 0 C -0.331 -0.365 -1.036 -0.267 -1.552 0.231 C -2.08 0.718 -2.227 1.409 -1.896 1.774 C -1.56 2.14 -0.851 2.037 -0.331 1.543 C 0.193 1.057 0.352 0.361 0 0" style="fill: rgb(255, 255, 255); fill-opacity: 1;"/>
      </g>
      <g transform="translate(325.6821 119.334)">
        <path d="M 0 0 C -0.147 -0.473 -0.825 -0.687 -1.509 -0.486 C -2.192 -0.279 -2.639 0.274 -2.501 0.752 C -2.359 1.229 -1.677 1.452 -0.988 1.237 C -0.306 1.031 0.142 0.481 0 0" style="fill: rgb(255, 255, 255); fill-opacity: 1;"/>
      </g>
      <g transform="translate(330.6245 118.9726)">
        <path d="M 0 0 C 0.017 -0.498 -0.563 -0.911 -1.281 -0.92 C -2.003 -0.937 -2.588 -0.533 -2.596 -0.043 C -2.596 0.46 -2.028 0.868 -1.307 0.881 C -0.589 0.895 0 0.494 0 0" style="fill: rgb(255, 255, 255); fill-opacity: 1;"/>
      </g>
      <g transform="translate(335.2231 119.7549)">
        <path d="M 0 0 C 0.086 -0.485 -0.413 -0.984 -1.126 -1.117 C -1.827 -1.246 -2.476 -0.945 -2.565 -0.464 C -2.652 0.034 -2.145 0.533 -1.444 0.662 C -0.73 0.786 -0.091 0.494 0 0" style="fill: rgb(255, 255, 255); fill-opacity: 1;"/>
      </g>
      <g transform="translate(224.8979 223.4882)">
        <path d="M 0 0 L 0 -0.5" style="fill: none; stroke: rgb(34, 134, 195); stroke-opacity: 1; stroke-miterlimit: 0; stroke-linecap: round; stroke-width: 1px; stroke-dashoffset: 0px;"/>
      </g>
      <g transform="translate(224.8979 220.9882)">
        <path d="M 0 0 L 0 -133.993" style="fill: none; stroke: rgb(34, 134, 195); stroke-opacity: 1; stroke-miterlimit: 0; stroke-linecap: round; stroke-width: 1px; stroke-dasharray: 1, 2; stroke-dashoffset: 0px;"/>
      </g>
      <g transform="translate(224.8979 85.9951)">
        <path d="M 0 0 L 0 -0.5" style="fill: none; stroke: rgb(34, 134, 195); stroke-opacity: 1; stroke-miterlimit: 0; stroke-linecap: round; stroke-width: 1px; stroke-dashoffset: 0px;"/>
      </g>
      <g transform="translate(133.2758 71.4795)">
        <path d="M 0 0 C -0.38 0.276 -0.866 0.414 -1.458 0.414 C -1.698 0.414 -1.934 0.39 -2.166 0.343 C -2.398 0.294 -2.604 0.214 -2.784 0.102 C -2.964 -0.011 -3.108 -0.16 -3.216 -0.349 C -3.324 -0.536 -3.378 -0.771 -3.378 -1.05 C -3.378 -1.314 -3.3 -1.528 -3.144 -1.692 C -2.988 -1.857 -2.78 -1.99 -2.52 -2.094 C -2.26 -2.198 -1.966 -2.284 -1.638 -2.353 C -1.31 -2.42 -0.976 -2.494 -0.636 -2.573 C -0.296 -2.653 0.038 -2.748 0.366 -2.857 C 0.694 -2.964 0.988 -3.11 1.248 -3.294 C 1.508 -3.478 1.716 -3.71 1.872 -3.989 C 2.028 -4.271 2.106 -4.622 2.106 -5.046 C 2.106 -5.502 2.004 -5.892 1.8 -6.216 C 1.596 -6.54 1.334 -6.804 1.014 -7.008 C 0.694 -7.212 0.336 -7.36 -0.06 -7.452 C -0.456 -7.544 -0.85 -7.59 -1.242 -7.59 C -1.722 -7.59 -2.176 -7.53 -2.604 -7.41 C -3.032 -7.29 -3.408 -7.108 -3.732 -6.864 C -4.056 -6.62 -4.312 -6.308 -4.5 -5.928 C -4.688 -5.548 -4.782 -5.099 -4.782 -4.578 L -3.702 -4.578 C -3.702 -4.939 -3.632 -5.248 -3.492 -5.508 C -3.352 -5.769 -3.168 -5.982 -2.94 -6.15 C -2.712 -6.317 -2.446 -6.442 -2.142 -6.523 C -1.838 -6.603 -1.526 -6.642 -1.206 -6.642 C -0.95 -6.642 -0.692 -6.618 -0.432 -6.569 C -0.172 -6.523 0.062 -6.441 0.27 -6.323 C 0.478 -6.208 0.646 -6.05 0.774 -5.851 C 0.902 -5.65 0.966 -5.394 0.966 -5.082 C 0.966 -4.786 0.888 -4.546 0.732 -4.362 C 0.576 -4.179 0.368 -4.028 0.108 -3.912 C -0.152 -3.796 -0.446 -3.702 -0.774 -3.63 C -1.102 -3.558 -1.436 -3.483 -1.776 -3.407 C -2.116 -3.332 -2.45 -3.244 -2.778 -3.144 C -3.106 -3.044 -3.4 -2.912 -3.66 -2.748 C -3.92 -2.584 -4.128 -2.372 -4.284 -2.112 C -4.44 -1.853 -4.518 -1.526 -4.518 -1.134 C -4.518 -0.702 -4.43 -0.328 -4.254 -0.012 C -4.078 0.304 -3.844 0.563 -3.552 0.768 C -3.26 0.972 -2.928 1.124 -2.556 1.224 C -2.184 1.324 -1.802 1.374 -1.41 1.374 C -0.97 1.374 -0.562 1.321 -0.186 1.218 C 0.19 1.114 0.52 0.95 0.804 0.725 C 1.088 0.502 1.312 0.22 1.476 -0.12 C 1.64 -0.46 1.73 -0.866 1.746 -1.338 L 0.666 -1.338 C 0.602 -0.722 0.38 -0.276 0 0" style="fill: rgb(0, 115, 192); fill-opacity: 1;"/>
      </g>
      <g transform="translate(137.5537 70.2851)">
        <path d="M 0 0 L 0 -0.912 L 0.024 -0.912 C 0.488 -0.207 1.156 0.145 2.028 0.145 C 2.412 0.145 2.76 0.064 3.072 -0.096 C 3.384 -0.256 3.604 -0.527 3.732 -0.912 C 3.94 -0.576 4.214 -0.316 4.554 -0.132 C 4.894 0.053 5.268 0.145 5.676 0.145 C 5.988 0.145 6.27 0.11 6.522 0.043 C 6.774 -0.025 6.99 -0.132 7.17 -0.275 C 7.35 -0.42 7.49 -0.605 7.59 -0.834 C 7.69 -1.062 7.74 -1.336 7.74 -1.656 L 7.74 -6.203 L 6.72 -6.203 L 6.72 -2.136 C 6.72 -1.943 6.704 -1.764 6.672 -1.596 C 6.64 -1.428 6.58 -1.281 6.492 -1.158 C 6.404 -1.033 6.282 -0.936 6.126 -0.863 C 5.97 -0.791 5.768 -0.756 5.52 -0.756 C 5.016 -0.756 4.62 -0.899 4.332 -1.187 C 4.044 -1.476 3.9 -1.859 3.9 -2.34 L 3.9 -6.203 L 2.88 -6.203 L 2.88 -2.136 C 2.88 -1.936 2.862 -1.752 2.826 -1.584 C 2.79 -1.416 2.728 -1.27 2.64 -1.146 C 2.552 -1.021 2.434 -0.926 2.286 -0.857 C 2.138 -0.789 1.948 -0.756 1.716 -0.756 C 1.42 -0.756 1.166 -0.815 0.954 -0.936 C 0.742 -1.056 0.57 -1.199 0.438 -1.367 C 0.306 -1.535 0.21 -1.709 0.15 -1.89 C 0.09 -2.07 0.06 -2.22 0.06 -2.34 L 0.06 -6.203 L -0.96 -6.203 L -0.96 0 Z" style="fill: rgb(0, 115, 192); fill-opacity: 1;"/>
      </g>
      <g transform="translate(150.1655 67.0761)">
        <path d="M 0 0 C -0.208 -0.045 -0.426 -0.08 -0.654 -0.108 C -0.882 -0.137 -1.112 -0.168 -1.344 -0.205 C -1.576 -0.24 -1.784 -0.299 -1.968 -0.379 C -2.152 -0.459 -2.302 -0.572 -2.418 -0.721 C -2.534 -0.869 -2.592 -1.07 -2.592 -1.326 C -2.592 -1.494 -2.558 -1.637 -2.49 -1.752 C -2.422 -1.869 -2.334 -1.963 -2.226 -2.035 C -2.118 -2.106 -1.99 -2.158 -1.842 -2.19 C -1.694 -2.223 -1.544 -2.238 -1.392 -2.238 C -1.056 -2.238 -0.768 -2.193 -0.528 -2.101 C -0.288 -2.009 -0.092 -1.893 0.06 -1.752 C 0.212 -1.613 0.324 -1.461 0.396 -1.297 C 0.468 -1.133 0.504 -0.979 0.504 -0.834 L 0.504 0.209 C 0.376 0.113 0.208 0.043 0 0 M 1.428 -3.127 C 1.164 -3.127 0.954 -3.053 0.798 -2.904 C 0.642 -2.757 0.564 -2.515 0.564 -2.179 C 0.284 -2.515 -0.042 -2.757 -0.414 -2.904 C -0.786 -3.053 -1.188 -3.127 -1.62 -3.127 C -1.9 -3.127 -2.164 -3.097 -2.412 -3.037 C -2.66 -2.977 -2.878 -2.877 -3.066 -2.736 C -3.254 -2.597 -3.402 -2.417 -3.51 -2.197 C -3.618 -1.977 -3.672 -1.711 -3.672 -1.398 C -3.672 -1.047 -3.612 -0.759 -3.492 -0.535 C -3.372 -0.311 -3.214 -0.129 -3.018 0.012 C -2.822 0.151 -2.598 0.258 -2.346 0.33 C -2.094 0.401 -1.836 0.461 -1.572 0.51 C -1.292 0.565 -1.026 0.607 -0.774 0.635 C -0.522 0.663 -0.3 0.703 -0.108 0.756 C 0.084 0.807 0.236 0.883 0.348 0.983 C 0.46 1.084 0.516 1.229 0.516 1.422 C 0.516 1.645 0.474 1.825 0.39 1.961 C 0.306 2.098 0.198 2.201 0.066 2.273 C -0.066 2.346 -0.214 2.394 -0.378 2.418 C -0.542 2.441 -0.704 2.453 -0.864 2.453 C -1.296 2.453 -1.656 2.371 -1.944 2.207 C -2.232 2.043 -2.388 1.733 -2.412 1.277 L -3.432 1.277 C -3.416 1.661 -3.336 1.985 -3.192 2.25 C -3.048 2.514 -2.856 2.728 -2.616 2.892 C -2.376 3.055 -2.1 3.174 -1.788 3.246 C -1.476 3.317 -1.148 3.354 -0.804 3.354 C -0.524 3.354 -0.246 3.334 0.03 3.293 C 0.306 3.254 0.556 3.172 0.78 3.047 C 1.004 2.924 1.184 2.749 1.32 2.525 C 1.456 2.301 1.524 2.01 1.524 1.649 L 1.524 -1.543 C 1.524 -1.783 1.538 -1.959 1.566 -2.07 C 1.594 -2.183 1.688 -2.238 1.848 -2.238 C 1.936 -2.238 2.04 -2.219 2.16 -2.179 L 2.16 -2.971 C 1.984 -3.074 1.74 -3.127 1.428 -3.127" style="fill: rgb(0, 115, 192); fill-opacity: 1;"/>
      </g>
      <g transform="">
        <path d="M 154.354 64.082 L 153.334 64.082 L 153.334 72.649 L 154.354 72.649 Z" style="fill: rgb(0, 115, 192); fill-opacity: 1;"/>
        <path d="M 157.017 64.082 L 155.997 64.082 L 155.997 72.649 L 157.017 72.649 Z" style="fill: rgb(0, 115, 192); fill-opacity: 1;"/>
      </g>
      <g transform="translate(101.854 54.9863)">
        <path d="M 0 0 L 0 0.899 L 1.044 0.899 L 1.044 1.823 C 1.044 2.327 1.19 2.709 1.482 2.969 C 1.774 3.229 2.2 3.359 2.76 3.359 C 2.856 3.359 2.966 3.352 3.09 3.336 C 3.214 3.319 3.324 3.295 3.42 3.264 L 3.42 2.375 C 3.332 2.407 3.236 2.43 3.132 2.441 C 3.028 2.453 2.932 2.459 2.844 2.459 C 2.596 2.459 2.404 2.411 2.268 2.315 C 2.132 2.219 2.064 2.035 2.064 1.764 L 2.064 0.899 L 3.264 0.899 L 3.264 0 L 2.064 0 L 2.064 -5.305 L 1.044 -5.305 L 1.044 0 Z" style="fill: rgb(0, 115, 192); fill-opacity: 1;"/>
      </g>
      <g transform="translate(106.9238 51.7754)">
        <path d="M 0 0 C 0.1 -0.292 0.238 -0.535 0.414 -0.732 C 0.59 -0.928 0.796 -1.078 1.032 -1.182 C 1.268 -1.285 1.518 -1.338 1.782 -1.338 C 2.046 -1.338 2.296 -1.285 2.532 -1.182 C 2.768 -1.078 2.974 -0.928 3.15 -0.732 C 3.326 -0.535 3.464 -0.292 3.564 0 C 3.664 0.292 3.714 0.626 3.714 1.002 C 3.714 1.379 3.664 1.712 3.564 2.004 C 3.464 2.297 3.326 2.542 3.15 2.742 C 2.974 2.941 2.768 3.094 2.532 3.198 C 2.296 3.303 2.046 3.354 1.782 3.354 C 1.518 3.354 1.268 3.303 1.032 3.198 C 0.796 3.094 0.59 2.941 0.414 2.742 C 0.238 2.542 0.1 2.297 0 2.004 C -0.1 1.712 -0.15 1.379 -0.15 1.002 C -0.15 0.626 -0.1 0.292 0 0 M -1.038 2.28 C -0.91 2.676 -0.718 3.02 -0.462 3.313 C -0.206 3.604 0.11 3.834 0.486 4.002 C 0.862 4.17 1.294 4.254 1.782 4.254 C 2.278 4.254 2.712 4.17 3.084 4.002 C 3.456 3.834 3.77 3.604 4.026 3.313 C 4.282 3.02 4.474 2.676 4.602 2.28 C 4.73 1.885 4.794 1.458 4.794 1.002 C 4.794 0.547 4.73 0.122 4.602 -0.27 C 4.474 -0.662 4.282 -1.004 4.026 -1.296 C 3.77 -1.588 3.456 -1.816 3.084 -1.98 C 2.712 -2.144 2.278 -2.226 1.782 -2.226 C 1.294 -2.226 0.862 -2.144 0.486 -1.98 C 0.11 -1.816 -0.206 -1.588 -0.462 -1.296 C -0.718 -1.004 -0.91 -0.662 -1.038 -0.27 C -1.166 0.122 -1.23 0.547 -1.23 1.002 C -1.23 1.458 -1.166 1.885 -1.038 2.28" style="fill: rgb(0, 115, 192); fill-opacity: 1;"/>
      </g>
      <g transform="translate(113.8417 55.8857)">
        <path d="M 0 0 L 0 -1.308 L 0.024 -1.308 C 0.272 -0.804 0.576 -0.433 0.936 -0.192 C 1.296 0.048 1.752 0.159 2.304 0.144 L 2.304 -0.936 C 1.896 -0.936 1.548 -0.992 1.26 -1.104 C 0.972 -1.216 0.74 -1.38 0.564 -1.597 C 0.388 -1.811 0.26 -2.074 0.18 -2.382 C 0.1 -2.69 0.06 -3.044 0.06 -3.444 L 0.06 -6.204 L -0.96 -6.204 L -0.96 0 Z" style="fill: rgb(0, 115, 192); fill-opacity: 1;"/>
      </g>
      <g transform="translate(122.7333 49.6816)">
        <path d="M 0 0 L 0 6.096 L -2.208 6.096 L -2.208 6.912 C -1.92 6.912 -1.64 6.934 -1.368 6.979 C -1.096 7.021 -0.85 7.104 -0.63 7.225 C -0.41 7.344 -0.224 7.508 -0.072 7.716 C 0.08 7.924 0.184 8.188 0.24 8.508 L 1.02 8.508 L 1.02 0 Z" style="fill: rgb(0, 115, 192); fill-opacity: 1;"/>
      </g>
      <g transform="translate(128.8295 54.1035)">
        <path d="M 0 0 C -0.216 -0.1 -0.4 -0.236 -0.552 -0.408 C -0.704 -0.58 -0.818 -0.784 -0.893 -1.02 C -0.97 -1.256 -1.008 -1.506 -1.008 -1.77 C -1.008 -2.033 -0.968 -2.281 -0.888 -2.514 C -0.808 -2.746 -0.694 -2.945 -0.546 -3.113 C -0.398 -3.281 -0.214 -3.416 0.006 -3.516 C 0.226 -3.616 0.476 -3.666 0.756 -3.666 C 1.036 -3.666 1.282 -3.616 1.494 -3.516 C 1.706 -3.416 1.884 -3.277 2.028 -3.102 C 2.172 -2.926 2.282 -2.724 2.358 -2.496 C 2.434 -2.268 2.472 -2.029 2.472 -1.781 C 2.472 -1.518 2.438 -1.268 2.37 -1.031 C 2.302 -0.796 2.196 -0.592 2.052 -0.42 C 1.908 -0.248 1.728 -0.109 1.512 -0.006 C 1.296 0.098 1.044 0.15 0.756 0.15 C 0.468 0.15 0.216 0.1 0 0 M 1.848 2.838 C 1.6 3.07 1.272 3.186 0.864 3.186 C 0.432 3.186 0.084 3.08 -0.18 2.868 C -0.444 2.656 -0.65 2.389 -0.798 2.064 C -0.946 1.74 -1.048 1.391 -1.104 1.014 C -1.16 0.639 -1.192 0.286 -1.2 -0.042 L -1.176 -0.066 C -0.936 0.326 -0.638 0.609 -0.282 0.786 C 0.074 0.962 0.484 1.051 0.948 1.051 C 1.356 1.051 1.722 0.98 2.046 0.84 C 2.37 0.7 2.642 0.506 2.862 0.258 C 3.082 0.01 3.253 -0.281 3.372 -0.617 C 3.492 -0.954 3.552 -1.318 3.552 -1.71 C 3.552 -2.021 3.504 -2.346 3.408 -2.682 C 3.312 -3.018 3.154 -3.324 2.934 -3.6 C 2.714 -3.876 2.422 -4.104 2.058 -4.283 C 1.694 -4.464 1.244 -4.554 0.708 -4.554 C 0.076 -4.554 -0.432 -4.426 -0.816 -4.17 C -1.2 -3.914 -1.496 -3.586 -1.704 -3.186 C -1.912 -2.786 -2.05 -2.346 -2.118 -1.865 C -2.186 -1.386 -2.22 -0.922 -2.22 -0.474 C -2.22 0.109 -2.17 0.676 -2.07 1.225 C -1.97 1.771 -1.8 2.258 -1.559 2.682 C -1.32 3.105 -1 3.445 -0.6 3.702 C -0.2 3.958 0.304 4.086 0.912 4.086 C 1.616 4.086 2.176 3.9 2.592 3.528 C 3.008 3.156 3.248 2.618 3.312 1.914 L 2.292 1.914 C 2.244 2.299 2.096 2.605 1.848 2.838" style="fill: rgb(0, 115, 192); fill-opacity: 1;"/>
      </g>
      <g transform="translate(138.3159 53.6836)">
        <path d="M 0 0 C -0.076 0.275 -0.192 0.521 -0.348 0.738 C -0.504 0.954 -0.704 1.126 -0.948 1.254 C -1.192 1.382 -1.479 1.446 -1.806 1.446 C -2.15 1.446 -2.442 1.378 -2.682 1.242 C -2.922 1.105 -3.118 0.928 -3.27 0.708 C -3.422 0.488 -3.532 0.238 -3.6 -0.042 C -3.669 -0.322 -3.702 -0.606 -3.702 -0.895 C -3.702 -1.198 -3.666 -1.492 -3.594 -1.775 C -3.523 -2.061 -3.408 -2.311 -3.253 -2.525 C -3.096 -2.742 -2.895 -2.916 -2.646 -3.048 C -2.399 -3.18 -2.098 -3.246 -1.746 -3.246 C -1.395 -3.246 -1.1 -3.178 -0.864 -3.042 C -0.628 -2.906 -0.439 -2.727 -0.295 -2.502 C -0.15 -2.278 -0.046 -2.021 0.017 -1.734 C 0.081 -1.445 0.114 -1.15 0.114 -0.846 C 0.114 -0.559 0.076 -0.275 0 0 M -3.666 2.202 L -3.666 1.361 L -3.642 1.361 C -3.474 1.706 -3.211 1.956 -2.85 2.111 C -2.49 2.267 -2.094 2.346 -1.662 2.346 C -1.182 2.346 -0.764 2.258 -0.408 2.082 C -0.052 1.906 0.244 1.668 0.48 1.368 C 0.716 1.068 0.893 0.722 1.014 0.33 C 1.134 -0.062 1.194 -0.479 1.194 -0.918 C 1.194 -1.358 1.136 -1.774 1.019 -2.166 C 0.904 -2.559 0.727 -2.9 0.492 -3.191 C 0.256 -3.484 -0.041 -3.714 -0.396 -3.882 C -0.753 -4.05 -1.167 -4.134 -1.638 -4.134 C -1.791 -4.134 -1.961 -4.117 -2.149 -4.086 C -2.337 -4.054 -2.523 -4.002 -2.706 -3.93 C -2.89 -3.858 -3.065 -3.76 -3.228 -3.636 C -3.392 -3.512 -3.53 -3.358 -3.642 -3.174 L -3.666 -3.174 L -3.666 -6.365 L -4.686 -6.365 L -4.686 2.202 Z" style="fill: rgb(0, 115, 192); fill-opacity: 1;"/>
      </g>
      <g transform="translate(140.2172 55.8857)">
        <path d="M 0 0 L 1.308 0 L 2.796 -2.172 L 4.344 0 L 5.568 0 L 3.432 -2.856 L 5.832 -6.204 L 4.524 -6.204 L 2.796 -3.636 L 1.068 -6.204 L -0.168 -6.204 L 2.16 -2.94 Z" style="fill: rgb(0, 115, 192); fill-opacity: 1;"/>
      </g>
      <g transform="">
        <path d="M 150.225 52.537 L 146.757 52.537 L 146.757 53.498 L 150.225 53.498 Z" style="fill: rgb(0, 115, 192); fill-opacity: 1;"/>
      </g>
      <g transform="translate(154.0771 49.6816)">
        <path d="M 0 0 L 0 6.096 L -2.208 6.096 L -2.208 6.912 C -1.92 6.912 -1.64 6.934 -1.368 6.979 C -1.096 7.021 -0.85 7.104 -0.63 7.225 C -0.41 7.344 -0.224 7.508 -0.072 7.716 C 0.08 7.924 0.184 8.188 0.24 8.508 L 1.02 8.508 L 1.02 0 Z" style="fill: rgb(0, 115, 192); fill-opacity: 1;"/>
      </g>
      <g transform="translate(158.1572 56.3769)">
        <path d="M 0 0 C 0.112 0.369 0.286 0.686 0.522 0.955 C 0.758 1.223 1.052 1.433 1.404 1.584 C 1.756 1.736 2.156 1.812 2.604 1.812 C 2.972 1.812 3.318 1.759 3.642 1.65 C 3.966 1.543 4.248 1.387 4.488 1.183 C 4.728 0.979 4.918 0.725 5.058 0.421 C 5.198 0.117 5.268 -0.235 5.268 -0.635 C 5.268 -1.012 5.21 -1.344 5.094 -1.631 C 4.977 -1.92 4.824 -2.178 4.632 -2.405 C 4.44 -2.633 4.22 -2.84 3.972 -3.023 C 3.724 -3.207 3.468 -3.383 3.204 -3.551 C 2.94 -3.711 2.676 -3.869 2.412 -4.025 C 2.148 -4.182 1.906 -4.348 1.686 -4.523 C 1.466 -4.699 1.278 -4.889 1.122 -5.094 C 0.966 -5.297 0.864 -5.531 0.816 -5.795 L 5.184 -5.795 L 5.184 -6.695 L -0.372 -6.695 C -0.332 -6.191 -0.242 -5.762 -0.102 -5.405 C 0.038 -5.049 0.216 -4.739 0.432 -4.475 C 0.648 -4.211 0.892 -3.98 1.164 -3.779 C 1.436 -3.58 1.72 -3.392 2.016 -3.215 C 2.376 -2.991 2.692 -2.785 2.964 -2.598 C 3.236 -2.41 3.462 -2.219 3.642 -2.027 C 3.822 -1.836 3.958 -1.627 4.05 -1.403 C 4.142 -1.18 4.188 -0.92 4.188 -0.623 C 4.188 -0.392 4.143 -0.182 4.056 0.007 C 3.968 0.194 3.85 0.356 3.702 0.492 C 3.554 0.629 3.38 0.732 3.18 0.805 C 2.98 0.877 2.768 0.912 2.544 0.912 C 2.247 0.912 1.994 0.851 1.782 0.727 C 1.57 0.603 1.396 0.44 1.26 0.24 C 1.124 0.041 1.026 -0.186 0.966 -0.437 C 0.906 -0.689 0.88 -0.943 0.888 -1.199 L -0.132 -1.199 C -0.156 -0.768 -0.112 -0.367 0 0" style="fill: rgb(0, 115, 192); fill-opacity: 1;"/>
      </g>
      <g transform="translate(165.7832 52.7949)">
        <path d="M 0 0 C 0.02 -0.396 0.084 -0.768 0.192 -1.115 C 0.3 -1.463 0.474 -1.758 0.714 -1.997 C 0.954 -2.237 1.29 -2.357 1.722 -2.357 C 2.154 -2.357 2.49 -2.237 2.73 -1.997 C 2.97 -1.758 3.144 -1.463 3.252 -1.115 C 3.36 -0.768 3.424 -0.396 3.444 0 C 3.464 0.396 3.474 0.755 3.474 1.074 C 3.474 1.283 3.472 1.513 3.468 1.765 C 3.464 2.017 3.444 2.268 3.408 2.52 C 3.372 2.773 3.32 3.018 3.252 3.259 C 3.184 3.498 3.084 3.709 2.952 3.889 C 2.82 4.068 2.654 4.215 2.454 4.326 C 2.254 4.438 2.01 4.494 1.722 4.494 C 1.434 4.494 1.19 4.438 0.99 4.326 C 0.79 4.215 0.624 4.068 0.492 3.889 C 0.36 3.709 0.26 3.498 0.192 3.259 C 0.124 3.018 0.072 2.773 0.036 2.52 C 0 2.268 -0.02 2.017 -0.024 1.765 C -0.028 1.513 -0.03 1.283 -0.03 1.074 C -0.03 0.755 -0.02 0.396 0 0 M -1.086 2.035 C -1.07 2.371 -1.03 2.699 -0.966 3.018 C -0.902 3.338 -0.81 3.643 -0.69 3.931 C -0.57 4.219 -0.406 4.471 -0.198 4.686 C 0.01 4.902 0.272 5.074 0.588 5.203 C 0.904 5.33 1.282 5.395 1.722 5.395 C 2.162 5.395 2.54 5.33 2.856 5.203 C 3.172 5.074 3.434 4.902 3.642 4.686 C 3.85 4.471 4.014 4.219 4.134 3.931 C 4.254 3.643 4.346 3.338 4.41 3.018 C 4.474 2.699 4.514 2.371 4.53 2.035 C 4.546 1.699 4.554 1.375 4.554 1.062 C 4.554 0.75 4.546 0.427 4.53 0.091 C 4.514 -0.245 4.474 -0.573 4.41 -0.893 C 4.346 -1.213 4.254 -1.516 4.134 -1.799 C 4.014 -2.084 3.85 -2.334 3.642 -2.549 C 3.434 -2.766 3.174 -2.936 2.862 -3.059 C 2.55 -3.184 2.17 -3.245 1.722 -3.245 C 1.282 -3.245 0.904 -3.184 0.588 -3.059 C 0.272 -2.936 0.01 -2.766 -0.198 -2.549 C -0.406 -2.334 -0.57 -2.084 -0.69 -1.799 C -0.81 -1.516 -0.902 -1.213 -0.966 -0.893 C -1.03 -0.573 -1.07 -0.245 -1.086 0.091 C -1.102 0.427 -1.11 0.75 -1.11 1.062 C -1.11 1.375 -1.102 1.699 -1.086 2.035" style="fill: rgb(0, 115, 192); fill-opacity: 1;"/>
      </g>
      <g transform="translate(176.3315 53.6836)">
        <path d="M 0 0 C -0.076 0.275 -0.192 0.521 -0.348 0.738 C -0.504 0.954 -0.704 1.126 -0.948 1.254 C -1.192 1.382 -1.479 1.446 -1.806 1.446 C -2.15 1.446 -2.442 1.378 -2.682 1.242 C -2.922 1.105 -3.118 0.928 -3.27 0.708 C -3.422 0.488 -3.532 0.238 -3.6 -0.042 C -3.669 -0.322 -3.702 -0.606 -3.702 -0.895 C -3.702 -1.198 -3.666 -1.492 -3.594 -1.775 C -3.523 -2.061 -3.408 -2.311 -3.252 -2.525 C -3.096 -2.742 -2.895 -2.916 -2.646 -3.048 C -2.398 -3.18 -2.098 -3.246 -1.746 -3.246 C -1.395 -3.246 -1.1 -3.178 -0.864 -3.042 C -0.628 -2.906 -0.439 -2.727 -0.294 -2.502 C -0.15 -2.278 -0.046 -2.021 0.018 -1.734 C 0.081 -1.445 0.114 -1.15 0.114 -0.846 C 0.114 -0.559 0.076 -0.275 0 0 M -3.666 2.202 L -3.666 1.361 L -3.642 1.361 C -3.474 1.706 -3.211 1.956 -2.85 2.111 C -2.49 2.267 -2.094 2.346 -1.662 2.346 C -1.182 2.346 -0.764 2.258 -0.408 2.082 C -0.052 1.906 0.244 1.668 0.48 1.368 C 0.716 1.068 0.893 0.722 1.014 0.33 C 1.134 -0.062 1.194 -0.479 1.194 -0.918 C 1.194 -1.358 1.136 -1.774 1.02 -2.166 C 0.904 -2.559 0.727 -2.9 0.492 -3.191 C 0.256 -3.484 -0.04 -3.714 -0.396 -3.882 C -0.752 -4.05 -1.167 -4.134 -1.638 -4.134 C -1.79 -4.134 -1.961 -4.117 -2.148 -4.086 C -2.336 -4.054 -2.523 -4.002 -2.706 -3.93 C -2.89 -3.858 -3.064 -3.76 -3.228 -3.636 C -3.392 -3.512 -3.53 -3.358 -3.642 -3.174 L -3.666 -3.174 L -3.666 -6.365 L -4.686 -6.365 L -4.686 2.202 Z" style="fill: rgb(0, 115, 192); fill-opacity: 1;"/>
      </g>
      <g transform="translate(178.2329 55.8857)">
        <path d="M 0 0 L 1.308 0 L 2.796 -2.172 L 4.344 0 L 5.568 0 L 3.432 -2.856 L 5.832 -6.204 L 4.524 -6.204 L 2.796 -3.636 L 1.068 -6.204 L -0.168 -6.204 L 2.16 -2.94 Z" style="fill: rgb(0, 115, 192); fill-opacity: 1;"/>
      </g>
      <g transform="translate(335.6333 72.6504)">
        <path d="M 0 0 L 0 -7.607 L 4.536 -7.607 L 4.536 -8.568 L -1.14 -8.568 L -1.14 0 Z" style="fill: rgb(0, 115, 192); fill-opacity: 1;"/>
      </g>
      <g transform="translate(344.3334 67.0761)">
        <path d="M 0 0 C -0.209 -0.044 -0.426 -0.08 -0.654 -0.107 C -0.883 -0.136 -1.113 -0.168 -1.345 -0.203 C -1.576 -0.24 -1.785 -0.298 -1.969 -0.377 C -2.152 -0.457 -2.303 -0.572 -2.418 -0.72 C -2.535 -0.867 -2.592 -1.07 -2.592 -1.326 C -2.592 -1.494 -2.558 -1.636 -2.49 -1.752 C -2.423 -1.867 -2.334 -1.961 -2.226 -2.033 C -2.119 -2.105 -1.99 -2.158 -1.842 -2.189 C -1.694 -2.222 -1.545 -2.238 -1.392 -2.238 C -1.057 -2.238 -0.768 -2.191 -0.528 -2.1 C -0.289 -2.008 -0.093 -1.892 0.06 -1.752 C 0.211 -1.611 0.324 -1.459 0.396 -1.295 C 0.467 -1.132 0.504 -0.978 0.504 -0.834 L 0.504 0.211 C 0.375 0.114 0.207 0.045 0 0 M 1.428 -3.125 C 1.164 -3.125 0.953 -3.052 0.797 -2.904 C 0.642 -2.756 0.564 -2.514 0.564 -2.178 C 0.283 -2.514 -0.043 -2.756 -0.414 -2.904 C -0.787 -3.052 -1.188 -3.125 -1.621 -3.125 C -1.9 -3.125 -2.164 -3.096 -2.412 -3.035 C -2.66 -2.976 -2.879 -2.875 -3.066 -2.736 C -3.254 -2.596 -3.402 -2.416 -3.51 -2.195 C -3.619 -1.976 -3.672 -1.709 -3.672 -1.397 C -3.672 -1.046 -3.612 -0.758 -3.492 -0.533 C -3.373 -0.31 -3.215 -0.128 -3.018 0.012 C -2.822 0.152 -2.599 0.258 -2.347 0.33 C -2.095 0.402 -1.836 0.463 -1.572 0.51 C -1.293 0.566 -1.026 0.608 -0.774 0.637 C -0.522 0.664 -0.301 0.704 -0.108 0.756 C 0.084 0.809 0.235 0.885 0.348 0.984 C 0.459 1.084 0.516 1.23 0.516 1.422 C 0.516 1.646 0.474 1.826 0.39 1.963 C 0.306 2.098 0.197 2.202 0.066 2.274 C -0.066 2.346 -0.215 2.395 -0.379 2.418 C -0.543 2.442 -0.705 2.455 -0.864 2.455 C -1.297 2.455 -1.656 2.372 -1.944 2.209 C -2.232 2.045 -2.389 1.734 -2.412 1.278 L -3.433 1.278 C -3.416 1.662 -3.336 1.986 -3.192 2.25 C -3.049 2.514 -2.856 2.729 -2.617 2.893 C -2.377 3.057 -2.1 3.174 -1.789 3.246 C -1.476 3.318 -1.148 3.354 -0.805 3.354 C -0.524 3.354 -0.246 3.334 0.029 3.295 C 0.306 3.254 0.556 3.172 0.779 3.049 C 1.004 2.924 1.184 2.75 1.319 2.526 C 1.455 2.303 1.524 2.01 1.524 1.65 L 1.524 -1.541 C 1.524 -1.781 1.537 -1.957 1.566 -2.07 C 1.594 -2.182 1.688 -2.238 1.848 -2.238 C 1.936 -2.238 2.039 -2.218 2.16 -2.178 L 2.16 -2.97 C 1.983 -3.074 1.74 -3.125 1.428 -3.125" style="fill: rgb(0, 115, 192); fill-opacity: 1;"/>
      </g>
      <g transform="translate(348.3647 70.2871)">
        <path d="M 0 0 L 0 -1.309 L 0.023 -1.309 C 0.272 -0.805 0.576 -0.433 0.936 -0.192 C 1.296 0.047 1.752 0.159 2.305 0.143 L 2.305 -0.937 C 1.897 -0.937 1.549 -0.992 1.26 -1.105 C 0.973 -1.217 0.74 -1.381 0.565 -1.597 C 0.389 -1.812 0.26 -2.074 0.18 -2.383 C 0.1 -2.691 0.061 -3.045 0.061 -3.445 L 0.061 -6.205 L -0.96 -6.205 L -0.96 0 Z" style="fill: rgb(0, 115, 192); fill-opacity: 1;"/>
      </g>
      <g transform="translate(354.4545 65.1211)">
        <path d="M 0 0 C 0.236 0.139 0.426 0.323 0.57 0.551 C 0.715 0.779 0.82 1.037 0.889 1.325 C 0.956 1.613 0.99 1.901 0.99 2.189 C 0.99 2.461 0.959 2.729 0.895 2.994 C 0.83 3.258 0.729 3.496 0.588 3.707 C 0.448 3.92 0.266 4.09 0.043 4.217 C -0.182 4.346 -0.453 4.41 -0.773 4.41 C -1.102 4.41 -1.382 4.348 -1.613 4.224 C -1.846 4.1 -2.035 3.934 -2.184 3.725 C -2.332 3.518 -2.439 3.277 -2.508 3.006 C -2.576 2.733 -2.609 2.449 -2.609 2.153 C -2.609 1.873 -2.582 1.594 -2.525 1.313 C -2.47 1.033 -2.373 0.779 -2.238 0.551 C -2.102 0.323 -1.922 0.139 -1.697 0 C -1.474 -0.141 -1.193 -0.211 -0.857 -0.211 C -0.521 -0.211 -0.236 -0.141 0 0 M 1.303 -2.791 C 0.838 -3.295 0.11 -3.547 -0.881 -3.547 C -1.17 -3.547 -1.463 -3.515 -1.764 -3.451 C -2.063 -3.387 -2.336 -3.283 -2.58 -3.139 C -2.824 -2.994 -3.025 -2.807 -3.186 -2.574 C -3.346 -2.342 -3.434 -2.059 -3.449 -1.723 L -2.43 -1.723 C -2.422 -1.906 -2.363 -2.063 -2.256 -2.191 C -2.147 -2.318 -2.016 -2.422 -1.859 -2.502 C -1.703 -2.582 -1.533 -2.641 -1.35 -2.677 C -1.166 -2.713 -0.99 -2.731 -0.822 -2.731 C -0.485 -2.731 -0.201 -2.672 0.03 -2.557 C 0.262 -2.441 0.455 -2.281 0.606 -2.076 C 0.758 -1.873 0.868 -1.627 0.937 -1.338 C 1.004 -1.051 1.039 -0.734 1.039 -0.391 L 1.039 0.018 L 1.015 0.018 C 0.838 -0.367 0.572 -0.648 0.217 -0.828 C -0.14 -1.009 -0.518 -1.099 -0.918 -1.099 C -1.382 -1.099 -1.785 -1.015 -2.129 -0.847 C -2.474 -0.679 -2.762 -0.453 -2.994 -0.168 C -3.225 0.115 -3.4 0.447 -3.516 0.828 C -3.632 1.207 -3.689 1.609 -3.689 2.033 C -3.689 2.401 -3.642 2.779 -3.545 3.168 C -3.449 3.555 -3.289 3.907 -3.065 4.224 C -2.842 4.539 -2.545 4.799 -2.178 5.004 C -1.81 5.207 -1.357 5.309 -0.822 5.309 C -0.43 5.309 -0.07 5.223 0.258 5.051 C 0.586 4.879 0.842 4.621 1.026 4.277 L 1.039 4.277 L 1.039 5.166 L 1.998 5.166 L 1.998 -0.511 C 1.998 -1.526 1.766 -2.287 1.303 -2.791" style="fill: rgb(0, 115, 192); fill-opacity: 1;"/>
      </g>
      <g transform="translate(362.1342 68.4629)">
        <path d="M 0 0 C -0.092 0.216 -0.215 0.402 -0.371 0.558 C -0.527 0.714 -0.712 0.838 -0.924 0.93 C -1.136 1.021 -1.369 1.068 -1.625 1.068 C -1.89 1.068 -2.128 1.021 -2.34 0.93 C -2.552 0.838 -2.734 0.711 -2.886 0.552 C -3.037 0.392 -3.158 0.205 -3.246 -0.006 C -3.334 -0.219 -3.386 -0.444 -3.401 -0.685 L 0.162 -0.685 C 0.147 -0.444 0.092 -0.217 0 0 M 0.246 -3.984 C -0.218 -4.336 -0.802 -4.512 -1.506 -4.512 C -2.002 -4.512 -2.432 -4.432 -2.795 -4.273 C -3.16 -4.112 -3.466 -3.889 -3.713 -3.601 C -3.961 -3.313 -4.147 -2.969 -4.271 -2.568 C -4.396 -2.168 -4.466 -1.732 -4.481 -1.26 C -4.481 -0.789 -4.41 -0.357 -4.266 0.035 C -4.121 0.428 -3.92 0.768 -3.66 1.056 C -3.4 1.344 -3.092 1.567 -2.735 1.727 C -2.38 1.888 -1.99 1.968 -1.565 1.968 C -1.014 1.968 -0.556 1.854 -0.191 1.625 C 0.172 1.397 0.465 1.107 0.685 0.756 C 0.904 0.403 1.057 0.02 1.141 -0.396 C 1.225 -0.812 1.258 -1.209 1.242 -1.584 L -3.401 -1.584 C -3.41 -1.857 -3.377 -2.114 -3.306 -2.358 C -3.233 -2.603 -3.117 -2.818 -2.957 -3.006 C -2.798 -3.194 -2.594 -3.344 -2.346 -3.457 C -2.098 -3.568 -1.806 -3.625 -1.47 -3.625 C -1.037 -3.625 -0.684 -3.525 -0.408 -3.324 C -0.131 -3.125 0.051 -2.82 0.139 -2.412 L 1.147 -2.412 C 1.01 -3.108 0.711 -3.633 0.246 -3.984" style="fill: rgb(0, 115, 192); fill-opacity: 1;"/>
      </g>
      <g transform="translate(365.3569 70.2871)">
        <path d="M 0 0 L 0 -1.309 L 0.023 -1.309 C 0.271 -0.805 0.576 -0.433 0.935 -0.192 C 1.295 0.047 1.752 0.159 2.304 0.143 L 2.304 -0.937 C 1.895 -0.937 1.548 -0.992 1.26 -1.105 C 0.972 -1.217 0.739 -1.381 0.563 -1.597 C 0.388 -1.812 0.26 -2.074 0.18 -2.383 C 0.1 -2.691 0.06 -3.045 0.06 -3.445 L 0.06 -6.205 L -0.961 -6.205 L -0.961 0 Z" style="fill: rgb(0, 115, 192); fill-opacity: 1;"/>
      </g>
      <g transform="translate(318.2573 54.9863)">
        <path d="M 0 0 L 0 0.9 L 1.044 0.9 L 1.044 1.824 C 1.044 2.328 1.189 2.711 1.482 2.971 C 1.773 3.23 2.199 3.36 2.76 3.36 C 2.855 3.36 2.966 3.352 3.09 3.336 C 3.214 3.32 3.324 3.297 3.42 3.264 L 3.42 2.377 C 3.332 2.408 3.236 2.43 3.132 2.442 C 3.027 2.454 2.932 2.461 2.844 2.461 C 2.596 2.461 2.404 2.412 2.268 2.316 C 2.132 2.221 2.064 2.036 2.064 1.764 L 2.064 0.9 L 3.264 0.9 L 3.264 0 L 2.064 0 L 2.064 -5.304 L 1.044 -5.304 L 1.044 0 Z" style="fill: rgb(0, 115, 192); fill-opacity: 1;"/>
      </g>
      <g transform="translate(323.3276 51.7773)">
        <path d="M 0 0 C 0.1 -0.293 0.237 -0.537 0.414 -0.732 C 0.59 -0.929 0.795 -1.078 1.031 -1.183 C 1.268 -1.287 1.518 -1.339 1.781 -1.339 C 2.045 -1.339 2.295 -1.287 2.531 -1.183 C 2.768 -1.078 2.973 -0.929 3.149 -0.732 C 3.325 -0.537 3.463 -0.293 3.564 0 C 3.664 0.291 3.713 0.625 3.713 1.002 C 3.713 1.377 3.664 1.711 3.564 2.004 C 3.463 2.295 3.325 2.541 3.149 2.741 C 2.973 2.941 2.768 3.094 2.531 3.197 C 2.295 3.301 2.045 3.354 1.781 3.354 C 1.518 3.354 1.268 3.301 1.031 3.197 C 0.795 3.094 0.59 2.941 0.414 2.741 C 0.237 2.541 0.1 2.295 0 2.004 C -0.101 1.711 -0.15 1.377 -0.15 1.002 C -0.15 0.625 -0.101 0.291 0 0 M -1.039 2.279 C -0.91 2.676 -0.719 3.02 -0.463 3.311 C -0.207 3.604 0.109 3.834 0.485 4.002 C 0.861 4.17 1.293 4.254 1.781 4.254 C 2.277 4.254 2.711 4.17 3.084 4.002 C 3.455 3.834 3.77 3.604 4.025 3.311 C 4.281 3.02 4.473 2.676 4.602 2.279 C 4.73 1.883 4.793 1.457 4.793 1.002 C 4.793 0.545 4.73 0.121 4.602 -0.27 C 4.473 -0.662 4.281 -1.005 4.025 -1.297 C 3.77 -1.589 3.455 -1.816 3.084 -1.98 C 2.711 -2.145 2.277 -2.227 1.781 -2.227 C 1.293 -2.227 0.861 -2.145 0.485 -1.98 C 0.109 -1.816 -0.207 -1.589 -0.463 -1.297 C -0.719 -1.005 -0.91 -0.662 -1.039 -0.27 C -1.166 0.121 -1.23 0.545 -1.23 1.002 C -1.23 1.457 -1.166 1.883 -1.039 2.279" style="fill: rgb(0, 115, 192); fill-opacity: 1;"/>
      </g>
      <g transform="translate(330.2456 55.8867)">
        <path d="M 0 0 L 0 -1.309 L 0.023 -1.309 C 0.271 -0.805 0.576 -0.432 0.936 -0.191 C 1.295 0.048 1.752 0.16 2.304 0.145 L 2.304 -0.936 C 1.896 -0.936 1.548 -0.992 1.26 -1.104 C 0.972 -1.217 0.739 -1.38 0.563 -1.596 C 0.388 -1.812 0.26 -2.074 0.18 -2.383 C 0.1 -2.689 0.06 -3.044 0.06 -3.444 L 0.06 -6.204 L -0.961 -6.204 L -0.961 0 Z" style="fill: rgb(0, 115, 192); fill-opacity: 1;"/>
      </g>
      <g transform="translate(339.1362 49.6826)">
        <path d="M 0 0 L 0 6.097 L -2.207 6.097 L -2.207 6.912 C -1.92 6.912 -1.64 6.935 -1.367 6.977 C -1.096 7.022 -0.85 7.105 -0.629 7.224 C -0.41 7.345 -0.224 7.508 -0.071 7.716 C 0.08 7.924 0.185 8.189 0.24 8.508 L 1.02 8.508 L 1.02 0 Z" style="fill: rgb(0, 115, 192); fill-opacity: 1;"/>
      </g>
      <g transform="translate(343.2172 56.3789)">
        <path d="M 0 0 C 0.112 0.367 0.286 0.686 0.522 0.953 C 0.758 1.222 1.052 1.432 1.403 1.584 C 1.756 1.735 2.155 1.811 2.604 1.811 C 2.972 1.811 3.317 1.758 3.642 1.65 C 3.966 1.541 4.248 1.386 4.487 1.182 C 4.728 0.977 4.918 0.724 5.058 0.42 C 5.198 0.115 5.269 -0.236 5.269 -0.637 C 5.269 -1.012 5.21 -1.344 5.094 -1.633 C 4.978 -1.92 4.823 -2.178 4.632 -2.406 C 4.44 -2.635 4.22 -2.84 3.972 -3.024 C 3.724 -3.209 3.468 -3.385 3.204 -3.553 C 2.94 -3.713 2.676 -3.87 2.411 -4.026 C 2.147 -4.182 1.905 -4.349 1.687 -4.524 C 1.466 -4.7 1.278 -4.891 1.122 -5.094 C 0.966 -5.299 0.864 -5.532 0.815 -5.797 L 5.185 -5.797 L 5.185 -6.696 L -0.372 -6.696 C -0.332 -6.192 -0.242 -5.762 -0.103 -5.406 C 0.038 -5.051 0.216 -4.74 0.432 -4.477 C 0.647 -4.213 0.892 -3.98 1.164 -3.78 C 1.436 -3.58 1.72 -3.393 2.016 -3.217 C 2.376 -2.992 2.692 -2.786 2.964 -2.598 C 3.235 -2.41 3.462 -2.221 3.642 -2.028 C 3.821 -1.836 3.958 -1.629 4.05 -1.404 C 4.142 -1.18 4.189 -0.92 4.189 -0.625 C 4.189 -0.393 4.144 -0.182 4.056 0.006 C 3.968 0.193 3.85 0.355 3.702 0.492 C 3.554 0.627 3.38 0.732 3.18 0.804 C 2.979 0.875 2.768 0.912 2.544 0.912 C 2.247 0.912 1.993 0.85 1.782 0.726 C 1.569 0.602 1.396 0.439 1.26 0.24 C 1.124 0.039 1.026 -0.187 0.966 -0.439 C 0.905 -0.691 0.88 -0.944 0.888 -1.2 L -0.132 -1.2 C -0.156 -0.768 -0.112 -0.368 0 0" style="fill: rgb(0, 115, 192); fill-opacity: 1;"/>
      </g>
      <g transform="translate(350.8432 52.7968)">
        <path d="M 0 0 C 0.02 -0.396 0.084 -0.768 0.191 -1.116 C 0.3 -1.465 0.474 -1.758 0.714 -1.998 C 0.953 -2.238 1.289 -2.358 1.722 -2.358 C 2.154 -2.358 2.49 -2.238 2.73 -1.998 C 2.97 -1.758 3.144 -1.465 3.252 -1.116 C 3.359 -0.768 3.424 -0.396 3.443 0 C 3.463 0.396 3.474 0.754 3.474 1.074 C 3.474 1.281 3.472 1.512 3.468 1.764 C 3.463 2.016 3.443 2.268 3.408 2.52 C 3.371 2.771 3.32 3.018 3.252 3.258 C 3.184 3.498 3.084 3.707 2.951 3.888 C 2.82 4.068 2.654 4.213 2.453 4.326 C 2.254 4.437 2.01 4.494 1.722 4.494 C 1.434 4.494 1.189 4.437 0.99 4.326 C 0.789 4.213 0.623 4.068 0.492 3.888 C 0.359 3.707 0.26 3.498 0.191 3.258 C 0.123 3.018 0.072 2.771 0.035 2.52 C 0 2.268 -0.021 2.016 -0.024 1.764 C -0.028 1.512 -0.03 1.281 -0.03 1.074 C -0.03 0.754 -0.021 0.396 0 0 M -1.086 2.033 C -1.07 2.369 -1.03 2.697 -0.967 3.018 C -0.902 3.338 -0.811 3.642 -0.69 3.93 C -0.57 4.218 -0.406 4.47 -0.198 4.686 C 0.01 4.902 0.271 5.074 0.588 5.201 C 0.904 5.33 1.281 5.394 1.722 5.394 C 2.162 5.394 2.539 5.33 2.855 5.201 C 3.172 5.074 3.434 4.902 3.642 4.686 C 3.85 4.47 4.014 4.218 4.134 3.93 C 4.254 3.642 4.346 3.338 4.41 3.018 C 4.474 2.697 4.514 2.369 4.529 2.033 C 4.546 1.697 4.554 1.373 4.554 1.062 C 4.554 0.75 4.546 0.426 4.529 0.09 C 4.514 -0.246 4.474 -0.574 4.41 -0.895 C 4.346 -1.215 4.254 -1.517 4.134 -1.801 C 4.014 -2.084 3.85 -2.334 3.642 -2.551 C 3.434 -2.766 3.174 -2.936 2.861 -3.061 C 2.55 -3.184 2.17 -3.246 1.722 -3.246 C 1.281 -3.246 0.904 -3.184 0.588 -3.061 C 0.271 -2.936 0.01 -2.766 -0.198 -2.551 C -0.406 -2.334 -0.57 -2.084 -0.69 -1.801 C -0.811 -1.517 -0.902 -1.215 -0.967 -0.895 C -1.03 -0.574 -1.07 -0.246 -1.086 0.09 C -1.103 0.426 -1.11 0.75 -1.11 1.062 C -1.11 1.373 -1.103 1.697 -1.086 2.033" style="fill: rgb(0, 115, 192); fill-opacity: 1;"/>
      </g>
      <g transform="translate(361.3911 53.6845)">
        <path d="M 0 0 C -0.076 0.276 -0.192 0.522 -0.349 0.738 C -0.505 0.954 -0.704 1.126 -0.948 1.254 C -1.192 1.382 -1.479 1.446 -1.806 1.446 C -2.15 1.446 -2.442 1.378 -2.683 1.242 C -2.923 1.106 -3.118 0.929 -3.271 0.708 C -3.423 0.487 -3.532 0.237 -3.601 -0.042 C -3.669 -0.322 -3.702 -0.606 -3.702 -0.894 C -3.702 -1.198 -3.666 -1.492 -3.595 -1.776 C -3.522 -2.06 -3.408 -2.31 -3.253 -2.526 C -3.097 -2.742 -2.895 -2.916 -2.646 -3.048 C -2.398 -3.181 -2.099 -3.246 -1.746 -3.246 C -1.395 -3.246 -1.101 -3.179 -0.864 -3.042 C -0.628 -2.906 -0.439 -2.726 -0.294 -2.502 C -0.15 -2.278 -0.046 -2.022 0.018 -1.733 C 0.081 -1.446 0.114 -1.149 0.114 -0.847 C 0.114 -0.558 0.075 -0.276 0 0 M -3.666 2.202 L -3.666 1.362 L -3.642 1.362 C -3.474 1.706 -3.21 1.956 -2.851 2.112 C -2.49 2.269 -2.095 2.347 -1.662 2.347 C -1.183 2.347 -0.765 2.258 -0.408 2.082 C -0.052 1.905 0.243 1.668 0.479 1.368 C 0.716 1.067 0.893 0.722 1.014 0.33 C 1.134 -0.062 1.194 -0.478 1.194 -0.918 C 1.194 -1.358 1.136 -1.774 1.02 -2.166 C 0.903 -2.558 0.728 -2.899 0.491 -3.192 C 0.256 -3.483 -0.04 -3.714 -0.396 -3.882 C -0.753 -4.05 -1.167 -4.134 -1.638 -4.134 C -1.79 -4.134 -1.96 -4.118 -2.148 -4.086 C -2.337 -4.054 -2.522 -4.002 -2.706 -3.931 C -2.89 -3.858 -3.064 -3.761 -3.228 -3.636 C -3.392 -3.513 -3.53 -3.358 -3.642 -3.174 L -3.666 -3.174 L -3.666 -6.366 L -4.687 -6.366 L -4.687 2.202 Z" style="fill: rgb(0, 115, 192); fill-opacity: 1;"/>
      </g>
      <g transform="translate(363.2924 55.8867)">
        <path d="M 0 0 L 1.309 0 L 2.796 -2.172 L 4.344 0 L 5.568 0 L 3.432 -2.855 L 5.832 -6.204 L 4.523 -6.204 L 2.796 -3.637 L 1.068 -6.204 L -0.168 -6.204 L 2.16 -2.939 Z" style="fill: rgb(0, 115, 192); fill-opacity: 1;"/>
      </g>
      <g transform="translate(379.1928 53.1269)">
        <path d="M 0 0 L 0 -0.816 L -2.616 -0.816 L -2.616 -3.444 L -3.432 -3.444 L -3.432 -0.816 L -6.048 -0.816 L -6.048 0 L -3.432 0 L -3.432 2.627 L -2.616 2.627 L -2.616 0 Z" style="fill: rgb(0, 115, 192); fill-opacity: 1;"/>
      </g>
    </g>
  </g>
</svg>