<?xml version="1.0" encoding="utf-8"?>
<svg viewBox="173 173 155 155" xmlns="http://www.w3.org/2000/svg">
  <defs>
    <filter id="a">
      <feGaussianBlur stdDeviation=".58672"/>
    </filter>
  </defs>
  <path d="M 194.319 393.238 L -55.165 393.238 L 69.577 177.178 Z M -53.433 392.238 L 192.587 392.238 L 69.577 179.178 Z" style="fill: none;" transform="matrix(0.874019, -0.485892, 0.485892, 0.874019, -188.687485, -78.974068)"/>
  <path d="M 194.319 393.238 L -55.165 393.238 L 69.577 177.178 Z M -53.433 392.238 L 192.587 392.238 L 69.577 179.178 Z" style="fill: none;" transform="matrix(0.874019, -0.485892, 0.485892, 0.874019, -188.687485, -78.974068)"/>
  <g transform="matrix(0.536976, 0, 0, 0.536976, 116.069298, 161.175827)">
    <g transform="translate(-2.9497 -18.076)" fill-rule="evenodd">
      <g transform="matrix(2.573519, 0, 0, 2.573489, -789.921021, -522.590698)" stroke="#000" style="">
        <path transform="matrix(.99975 0 0 1.0553 247.9 -7.028)" d="m211.43 266.65c0 28.403-24.305 51.429-54.286 51.429s-54.286-23.025-54.286-51.429 24.305-51.429 54.286-51.429 54.286 23.025 54.286 51.429z" fill="#fff" filter="url(#a)"/>
        <path transform="matrix(.70219 -.03352 .03462 .68 263.88 -25.238)" d="m233 452.36-44.049 22.432-44.049 22.432 2.5981-49.363 2.5981-49.363 41.451 26.932z" fill="#2c2c2c" stroke-opacity=".18257"/>
        <path d="m404.51 221.23c-29.13 1e-5 -52.781 24.323-52.781 54.281 46.899-10.605 58.321-10.745 105.53 0 1e-5 -29.958-23.62-54.281-52.75-54.281z" fill="#fff" opacity=".5" stroke-opacity=".18257"/>
      </g>
      <g transform="translate(-104.86 33.893)" stroke="#000"/>
    </g>
  </g>
</svg>