<?xml version="1.0" encoding="utf-8"?>
<svg viewBox="0 0 1304 1304" xmlns="http://www.w3.org/2000/svg" xmlns:xlink="http://www.w3.org/1999/xlink" xmlns:bx="https://boxy-svg.com">
  <defs>
    <linearGradient id="af" x1=".81068" x2=".47149" y1="-.002574" y2=".72142">
      <stop stop-color="#f7f7f7" offset="0"/>
      <stop stop-color="#e1e1e1" offset="1"/>
    </linearGradient>
    <linearGradient id="x" x1=".76162" x2=".47504" y1=".14716" y2="1" xlink:href="#q"/>
    <radialGradient id="z" cx="197.86" cy="202.14" r="189.29" gradientTransform="matrix(1.1734 0 0 1.1734 -14.424 -3.5962)" gradientUnits="userSpaceOnUse">
      <stop offset="0"/>
      <stop offset="0.8188"/>
      <stop stop-opacity="0" offset="1"/>
    </radialGradient>
  </defs>
  <g transform="matrix(1, 0, 0, 1, 2, 3)">
    <g transform="matrix(3.25, 0, 0, 3.25, -32.5, 0)">
      <g fill-rule="evenodd" stroke-width="2.7">
        <path d="M 410 211 C 410 368.809 170.833 -45.44 307.5 33.465 C 370.927 70.085 410 137.761 410 211 Z" fill="url(#z)"/>
        <path d="m410 200a200 200 0 1 1 -400 0 200 200 0 1 1 400 0z" style="fill: rgb(38, 38, 38);"/>
        <path d="m406 200a196 196 0 1 1 -392 0 196 196 0 1 1 392 0z" style="stroke-width: 3.38462px;"/>
        <path d="m20.678 149.27" fill="url(#af)"/>
        <path d="M 377.385 199.692 C 377.385 328.351 237.897 408.765 126.31 344.436 C 74.519 314.58 42.616 259.403 42.616 199.692 C 42.616 71.031 182.103 -9.382 293.693 54.95 C 345.482 84.804 377.385 139.979 377.385 199.692 Z" fill="url(#x)" style="stroke: rgb(186, 218, 85); stroke-width: 3.07692px;"/>
        <path d="m370 200a160 160 0 1 1 -320 0 160 160 0 1 1 320 0z" style="fill: rgb(30, 42, 48);"/>
      </g>
    </g>
    <rect x="640" y="1234.699" width="20" height="50" style="fill: rgb(84, 221, 255);" bx:origin="0.466 0.541"/>
    <rect x="640" width="20" height="50" style="fill: rgb(84, 221, 255);" y="17" bx:origin="0.466 0.541"/>
    <rect x="-24.07" width="20" height="50" style="fill: rgb(84, 221, 255);" y="-686.459" transform="matrix(0, 1, -1, 0, -618.658997, 663.070007)" bx:origin="0.466 0.541"/>
    <rect x="-24.07" width="20" height="50" style="fill: rgb(84, 221, 255);" y="-686.459" transform="matrix(0, 1, -1, 0, 596.189209, 663.070007)" bx:origin="0.466 0.541"/>
  </g>
</svg>