<?xml version="1.0" encoding="utf-8"?>
<svg viewBox="204.013 161.093 26.756 78.595" xmlns="http://www.w3.org/2000/svg">
  <g transform="matrix(0.258448, 0, 0, 0.258448, 121.794878, 152.104046)">
    <g transform="matrix(3.0949 0 0 3.0949 -612.51 -1467.2)"/>
    <g transform="matrix(3.0949 0 0 3.0949 -830.48 -1467.2)">
      <path d="m374.53 575.26c-5.5878-5.0203-2.5308-13.198 6.6932-17.903 3.0769-1.5697 5.3464-2.2491 9.4058-2.129 2.4622 0.0631 5.2939 1.4824 5.2939 1.4824 0-18.055-0.0682-52.28-0.0682-69.151 1.0003 6e-3 1.6402-6e-3 3.0409-6e-3l0.0471 24.445s-0.0876 36.372-0.0876 50.162c0 2.3747-2.1513 6.4006-3.3631 7.8481-5.5263 6.6011-16.134 9.5899-20.962 5.2519z"/>
    </g>
  </g>
</svg>